<?xml version="1.0" encoding="utf-8"?>
<!-- Generator: Adobe Illustrator 26.2.1, SVG Export Plug-In . SVG Version: 6.00 Build 0)  -->
<svg version="1.1" id="Layer_1" xmlns="http://www.w3.org/2000/svg" xmlns:xlink="http://www.w3.org/1999/xlink" x="0px" y="0px"
	 viewBox="0 0 283.6 327.1" style="enable-background:new 0 0 283.6 327.1;" xml:space="preserve">
<style type="text/css">
	.st0{fill:#C1272D;}
	.st1{clip-path:url(#SVGID_00000132796923841722206670000014189674337652211634_);}
	.st2{clip-path:url(#SVGID_00000040542502969676116970000010499963917332149649_);}
	.st3{fill:#FFFFFF;}
	.st4{fill:#020635;}
	.st5{fill:#151B44;}
	.st6{fill:#0F1949;}
	.st7{fill:#CEA889;}
	.st8{fill:#F2D1AD;}
	.st9{fill:#A88974;}
	.st10{fill:#3D3125;}
	.st11{fill:#F9DFC5;}
	.st12{fill:#E5C19E;}
	.st13{fill:#E5BFA3;}
	.st14{fill:#BC9273;}
	.st15{fill:#292130;}
	.st16{fill:#CCB4A3;}
</style>
<polygon class="st0" points="283.3,245.2 283.3,81.8 141.6,0 -0.2,81.8 -0.2,245.2 141.6,327 "/>
<g>
	<g>
		<defs>
			<polygon id="SVGID_1_" points="283.3,245.3 283.3,81.7 141.7,0 0.2,81.7 0.2,245.3 141.7,327 			"/>
		</defs>
		<clipPath id="SVGID_00000031178961254681508730000015154367288051511985_">
			<use xlink:href="#SVGID_1_"  style="overflow:visible;"/>
		</clipPath>
		<g style="clip-path:url(#SVGID_00000031178961254681508730000015154367288051511985_);">
			<g>
				<g>
					<defs>
						<polygon id="SVGID_00000059280561073967335000000010805780399446992007_" points="282.8,245.3 282.8,81.8 141.2,0 -0.3,81.8 
							-0.3,245.3 141.2,327.1 						"/>
					</defs>
					<clipPath id="SVGID_00000054970015370519790430000012052571090795633325_">
						<use xlink:href="#SVGID_00000059280561073967335000000010805780399446992007_"  style="overflow:visible;"/>
					</clipPath>
					<g style="clip-path:url(#SVGID_00000054970015370519790430000012052571090795633325_);">
						<g>
							<g>
								<g>
									<path class="st3" d="M83.7,189.5c-2,2-3.3,3.7-5.8,4.8c-1.7,0.8-3,2.1-4.7,3c-1.2,0.6-1.2,0.3-2,1.5
										c-0.9,1.4-1.2,2.2-1.3,4c-0.7,7.2,2.1,15.3,5.2,21.6c2.3,4.7,5.2,9.2,8.3,13.4c5.4,7.4,10.5,14.8,15.6,22.4
										c11.4,17.1,23.5,33.6,35.3,50.4c7.1,9.8,14.1,19.7,21.1,29.7c4.8,7.2,9.2,14.7,13.1,22.3c2.9,5.1,5.8,10.6,10.1,14.7
										c4.4,4.2,9,8.4,13,13c1.5,1.8,3.3,3.2,5.3,4.5c4.7,3.2,10.6,5.6,16.2,6.6c1.3,0.2,6.1-0.1,7,1c3.1-2.2,4.6-5.5,4.5-9.9
										c5.3-14.2,9.7-28.8,13-43.7c2.1-10.4,4.1-20.8,6.2-31.2c1.6-8.3,1.2-16.4-0.9-24.3c-0.6-4.4-2-8.6-4.2-12.5
										c-0.6-1.2-1.3-2.5-1.9-3.7c-1.3-2.9-1.9-5.8-3.7-8.5c-2.1-3.2-5-5.4-8-7.7c-4.2-3.2-8.1-6.6-12.1-10
										c-5.5-4.7-11.6-8.6-16.2-14.2c-3-3.6-5.7-7.9-7.2-12.4c-0.8-2.4-1.2-5.4-3.5-6.5c-1.3-0.6-2.4-0.3-3.8-0.5
										c-1.1-0.2-1.5-0.7-2.8-0.6c-5.7,0.1-11.4,0.7-17.2,0.6c-4.9,0-9.7,0-14.6,0c-4.3,0-9,0.6-13.1-1.3
										c-4.1-1.9-8.1-4.5-11.9-6.9c-3.7-2.4-7.7-4.4-11.8-6.1c-2-0.8-3.9-2-6-2.5c-1.8-0.5-4.4-0.4-5.8-1.8"/>
								</g>
								<g>
									<g>
										<g>
											<path class="st0" d="M216.1,370.8c-0.6-2.9-1-5.9-1.7-8.8c-0.7-3.4-1.9-6.8-2.8-10.2c-1.2-4.9-2.2-9.8-4-14.6
												c-1.5-4-2.9-8.1-3.9-12.3c-1.3-5.4-2.7-10.7-3.7-16.1c-0.4-1.8-0.7-3.5-1.1-5.3c-3.4-15.1-4.7-19.4-8.8-28.4
												c-0.8-1.7-2.8-2.4-4.5-1.6c-0.5,0.2-1,0.5-1.1,0.5c-0.8,0.7-1.7,1.5-2.5,2.2c-2.4,2.4-3.8,6.2-5.3,9.1
												c-0.3,0.7-0.8,1.3-1,2c-0.6,2.3,0.2,4.8,0.4,7.2c0.2,3,0.4,5.9,0.6,8.9c0.2,2.6,0.7,5.2,1.1,7.8c0.6,4.6,0.6,9.2,1,13.8
												c1.2,13.7,3.1,27.3,4.8,40.9c0.7,6,1.3,11.9,2.2,17.9c1.2,7.5,2.8,14.9,4,22.4c1,6,2.2,12,2.7,18.1
												c0.4,4.8,0.7,9.6,1,14.3c0.6,8.7,1.2,17.3,1.9,26c0.5,6,0.5,12,0.4,18.1c0,2.7,0.3,5.4,0.5,8.1c0.1,1.3-0.2,4,0.5,5.3
												c2.4-2.3,4.4-4.6,6.3-7.5c1.2-1.8,2.3-3.8,3.5-5.6c3.8-5.8,6.8-12,8.8-18.6c2.3-7.5,2.4-15.2,2.8-23
												c0.2-4.4,0.1-8.8,0.4-13.1c0.2-2.6,0.3-5.2,0.2-7.9c-0.1-5.1,0-10.2,0.2-15.2c0.2-4.4,0-8.7-0.6-13.1
												C217.4,385.1,217.7,377.8,216.1,370.8z"/>
										</g>
										<g>
											<path class="st4" d="M178.9,216.8c-0.2,2.5,5.2,5.6,5.9,8.8c0.2,0.9,0.3,1.7,0.5,2.6c0.2,0.9,0.3,1.9,0.5,2.8
												c0.4,1.8,0.6,3.7,0.9,5.4c0.8,3.5,1.6,6.9,2.1,10.5c0.6,5,1.6,9.9,1.6,14.9c0,1.6-0.1,3.2,0.3,4.7c0.6,2.2,1.4,4.3,2,6.5
												c0.4,1.5,1.3,2.8,1.7,4.2c0.4,1.2,0.6,2.5,1.1,3.6c1.6,4.1,4.2,7.8,5.9,11.8c1.1,2.7,1.3,5.5,1.7,8.3
												c0.6,3.9,1,7.8,1.1,11.7c0.1,4.9,0,9.8,0,14.7c0,5.1-0.4,10.3,0.1,15.4c0.7,7.8,0.6,15.7,1.3,23.6
												c0.4,3.6-0.3,7.3,0.7,10.9c2.5,8.6,4.4,17.7,5.8,26.6c1.1,7,1.2,14.3,1.5,21.3c0.2,6,0.1,11.9,0.1,17.9
												c0,5.1,0,10.1,0,15.2c0,3.9,0.2,7.9-0.1,11.8c-0.2,2.3-0.8,4.6-1,6.9c-0.1,0.9-0.7,2.2-0.6,3.1c1.7,0.4,3.8-0.2,5.4-0.4
												c2.1-0.4,4.1-0.5,6.2-0.6c6.7-0.2,13.4,0.1,20.1,0.5c2.1,0.1,4.1,0,6.2,0.3c1.8,0.3,4.3,0.6,6,0.2
												c1.1-11.2,1.9-22.5,3.7-33.6c0.9-5.8,1.9-11.8,2.5-17.6c0.6-5.3,0.6-10.7,0.9-16c0.6-13,0.2-25.9,0.4-38.9
												c0.2-16.3,1.3-32.5-0.5-48.8c-1.4-12.4-3.2-24.7-4.3-37.1c-1.1-11.9,0.8-23.4-3.7-34.8c-1.1-2.8-2.2-2.5-4.9-3.3
												c-8.9-2.7-16.2-9.8-24.1-14.5c-8-4.7-16.4-8.8-25.3-11.2c-2.7-0.7-4.9-1-6.9-3c-2.9-2.9-7.8-3.8-11.8-4.1
												C181,216.8,180.5,216.7,178.9,216.8z"/>
										</g>
										<g>
											<path class="st4" d="M218.6,405.6c-0.1-12.3-55.3-69.8-57.1-82c-0.8-5.8-3.3-10.6-6.2-15.6c-1.1-1.9-2.9-3.2-4.3-5
												c-0.9-1.2-1.7-2.3-2.8-3.4c-1.9-2-3.4-4.2-5-6.3c-1.9-2.5-3.7-5.1-6-7.3c-4.9-4.7-10.6-8.3-16-12.1
												c-2.2-1.5-3.9-2.7-6.3-3.9c-3-1.5-6.2-2.8-9.1-4.7c-4.9-3.2-10.5-5.7-15.2-9.2c-2.3-1.7-4.8-3.5-6.6-5.7
												c-1.2-1.4-2.2-2.8-3.3-4.2c-1.1-1.4-2.7-2.4-3.6-3.9c-2.8-5.2-6.9-9.8-9.9-14.9c-1.1-1.8-2.2-3.2-3.3-5
												c-0.9-1.5-7.3-2.1-9-2.1c-2,0-4.3,0.2-5.9,1.6c-0.8,0.7-1.2,1.7-2.1,2.4c-2.3,2-4.6,4.1-6.9,6.1
												c-1.9,1.6-4.2,2.8-6.1,4.3c-2.5,1.9-4.9,4.2-7.4,6.1c-3.6,2.7-14.5,7.9-22.3,14.2c-0.3,0.2-0.6,0.5-0.9,0.7
												c1.6,4.7-0.9,10.8-7.2,10.8c-2,0-3.7-0.6-4.9-1.6c-6.8,5.1-13.9,10.7-17.9,15.3c-1.6,1.8,17.3-4.5,15.5-3
												c-0.8,0.6-1.6,1.4-2.2,2.2c-0.6,0.7-0.6,1.2-1.1,1.9c-0.5,1-1.5,1.8-2.1,2.7c-0.3,0.5-0.5,0.1-0.8,0.8
												c-0.1,0.3,0,1.1-0.1,1.5c-0.5,1.8-1.6,3.3-2.1,5c-1.3,5.3-2.1,11.4-2.2,17.2c-0.2,6.6,0.1,13.3,0,19.9
												c0,3,0.7,5.9,0.8,8.9c0.1,3.7-0.1,7.2,0.3,10.9c0.3,3.1,0.4,6,0.3,9.1c0,4.1,0.7,8.1,0.8,12.1c0.1,4.5-0.4,9,0.1,13.5
												c0.4,3.5,0.4,6.9,0.5,10.5c0.1,4.3,0.8,8.5,0.8,12.8c0,4.7,0.6,9.3,0.8,13.9c0.1,4.2-0.3,8.3,0,12.5
												c0.3,4,0.7,7.8,0.7,11.8c0,7.9,0,15.8,0,23.6c0,1.5-4.8,8.2-3.6,9c3.3,2.1,7.1,3.6,10.8,5.1c21.6,8.7,44.3,15,66.9,20.7
												c6,1.6,12,2.9,18,4.1c8.7,1.2,17.4,2.1,26.1,2.7c12,1.1,24,2.6,36,3.3c5.6,0.3,11.2,0.4,16.9,0.8
												c1.6,0.1,3.7,0.6,5.1,0.1c0.8-4.5,0-9.8,0-14.3c0-10.9,23.9,21.1,23.8,10.2c-0.1-8.5,20.9-3.5,21.5-12
												c0.7-10.9,12.2-6.2,12.8-17.1C218.3,464.6,218.7,421.4,218.6,405.6z"/>
										</g>
										<g>
											<path class="st5" d="M-37,313.4c0-0.1,0-0.2,0-0.4c0.3-4-0.9-8.1,0.4-12c0.9-2.5,2.7-4.9,3.7-7.4c1-2.6,1.9-5.2,3.1-7.7
												c4.2-8.4,12.8-14.8,24.6-14.8c5.6,0,11.8-0.5,17.2,1.2c5.2,1.7,9.7,4.2,14.6,6.4C36.2,282.9,43,291,47.1,299
												c2.9,5.8,4.6,12.4,5.8,18.5c2.2,11.9,4.7,23.6,5,35.7c0.6,23.7,0,47.5,0,71.2c0,20.5,0,40.9,0,61.4
												c0,15.9,0.5,31.6-1.8,47.4c-0.6,4-0.6,8.1-1.3,12.1c-0.2,1.2-0.2,2.6-0.8,3.7c-0.6,1-1.6,1.3-2.7,1.8
												c-5.1,1.8-11.7,2.4-17.1,2.9c-19.2,1.8-39.4,3.6-58.3-0.5c-1-5.5-1.5-11.1-2.9-16.6c-1.6-6.5-2.9-13-3.9-19.7
												c-1.3-8.3-3.1-16.5-3.2-24.8c-0.5-35,0.1-70,0.1-105c0-7.4,0.1-14.9-0.9-22.3c-0.8-6.3-2.9-12.5-3.5-18.9
												c-0.5-5.4-1.6-10.7-1.2-16.1C-39.3,324.2-37.4,318.9-37,313.4z"/>
										</g>
										<g>
											<path class="st0" d="M165.5,243.6c-0.8-0.1-2,1.9-2.7,2.4c-0.8,0.6-1.4,1.2-2.1,1.8c-1.7,1.5-3,3.3-4.6,4.8
												c-1.3,1.2-2.7,2.3-4.1,3.4c-0.9,0.7-2.2,1.9-2.8,2.9c-0.5,0.8-0.4,0.8,0.3,1.3c0.4,0.3,0.8,0.3,1.2,0.7
												c0.3,0.3,0.3,0.7,0.5,1c1.4,1.7,3,3,4.6,4.4c3,2.7,6,5.4,8.9,8.2c1.5,1.5,2.9,2.9,4.5,4.3c1.4,1.2,3.1,2.1,4.5,3.4
												c1.1,1,2,2.3,3.1,3.4c0.4,0.4,0.7,1,1.3,0.7c0.3-0.2,0.9-2.3,1.1-2.7c0.9-1.8,2.9-3.1,4.4-4.2c1-0.7,2.3-1.4,3.1-2.4
												c0.2-0.2,0.3-0.7,0.5-0.9c0.4-0.5,1.3-0.9,1.6-1.4c1.3-2.1-0.6-5.9-1-8.1c-0.6-3.4-0.5-6.9-1.3-10.2
												c-0.6-2.5-1.1-5-2.1-7.5c-0.7-1.9-1.1-4-2.6-5.6c-2.1-2.3-5.8-2-8.5-2c-2.5,0-5.1-0.4-7.3,0.7
												C165.9,241.9,165.9,241.8,165.5,243.6z"/>
										</g>
										<g>
											<path class="st6" d="M210.3,394.9c-0.9-6.1-2.9-11.9-3.6-18c-1.2-1.7-2.4-3.4-3.5-5.2c-6.1-9.3-11.8-18.8-17.6-28.2
												c-3.9-6.4-8.1-12.7-12-19.1c-2.7-4.4-5.1-9-7.9-13.3c-2.7-4-5.9-8.3-9.2-11.9c-1-1.1-2-2.2-3.3-3.1
												c-0.9-0.6-2-1.1-2.9-1.8c-2.7-2.2-5-5-6.9-7.7c-1.5-2-3.1-4.1-4.7-6.1c-1.2-1.6-3-2.9-4.2-4.5
												c-3.4-4.4-7.2-8.7-11.4-12.5c-6.8-6.2-12.5-13.2-18.6-19.9c-2.8-3-5.8-5.8-8.5-8.8c-1.3-1.5-2.9-2.7-4.1-4.2
												s-2.3-3.2-3.7-4.7c-1.8-2.1-3.6-3.7-5.1-6c-0.7-1.1-1.7-1.6-2.5-2.6c-0.8-1.1-0.9-1.8-2-2.8c-2.9-2.5-4.6-5.7-6.4-8.9
												c-0.7-1.3-1.7-3.4-1.5-4.7c0.1-0.7,0.8-1.8,1.6-2.5c-1.4,0.4-2,0.7-2.2,0.8c-1.1-0.9-1.4-1.8-2.9-1s-1.8,3.7-2.9,5.1
												c-2.3,2.8-3.6,6.4-5.5,9.4c-0.9,1.5-2,3-3,4.4c-1.4,2-2.6,3.2-2.3,5.8c0.2,1.6,0.8,1.8,2,2.8c1.5,1.3,2.1,2.8,3.1,4.5
												c1.2,1.9,2.5,3.8,3.9,5.5c1.4,1.9,2.3,3.7,3.5,5.7c1.4,2.3,3.1,4.5,4.3,7c2.7,5.9,6.3,11.4,9,17.4c1.7,3.7,2.5,7.7,6,9.9
												c4.4,2.8,8.7,6.2,14.4,5.7c-0.8,0.6-1.2,1.7-1.9,2.4c-1,1-2.1,1.8-3.1,2.8c-2.3,2.2-4.5,4.2-6.6,6.6
												c-0.7,0.8-1.8,1.9-2.1,3.1c-0.3,1.4,0.3,1.5,1.3,2.3c2.4,1.8,4.5,4,6.8,5.8c4.2,3.3,9.1,5.7,13.2,9.1
												c4.2,3.4,8.1,7.2,12.1,10.8c5,4.5,10.4,8.5,14.7,13.6c1.9,2.3,3.7,4.8,5.8,6.9c2.6,2.6,5.6,4.6,8.4,7
												c11.2,9.5,22.7,18.5,34,27.9c8.4,7,18.1,12.9,28,17.9C210.6,396.7,210.5,395.8,210.3,394.9z"/>
										</g>
										<g>
											<g>
												<path class="st7" d="M162.9,226.8c1.7-0.9,3.1-2.2,4.5-3.5c1.2-1.1,2.5-2.2,3.6-3.4c0.4-0.4,0.8-0.9,1.3-1.3
													c0.3-0.2,0.4-0.6,0.7-0.8c0.7-0.6,1.5-1,2.4-1.4s1.8-0.8,2.6-1.2c0.4-0.2,0.7-0.3,0.7,0.2s-0.3,0.9-0.3,1.4
													c-0.1,0.6,0,1.4,0,2.1c0,1.2,0,2.4,0,3.6c0,3.8-1.2,7.5-2,11.2c-0.2,1-0.6,2-1,2.9c-0.3,0.6-0.5,1.3-0.8,1.9
													c-0.3,0.7-0.9,1.2-1.4,1.8c-0.2,0.3-0.3,0.6-0.5,0.9c-0.4,0.7-1,1.3-1.4,2.1c-0.4,0.6-0.8,1.2-1.2,1.7
													c-0.3,0.4-0.7,0.9-1.2,0.9c-0.7,0-1.1-0.5-1.5-0.9c-0.7-0.6-1.3-1.3-1.9-2c-0.5-0.6-0.8-1.2-1.2-1.9
													c-0.5-0.9-0.8-1.8-1-2.9c-0.2-1-0.2-1.9-0.1-2.9c0-1.3,0-2.6,0-3.8c0-1.3,0.3-2.6,0.3-3.9
													C163.6,226.9,163.6,226.2,162.9,226.8z"/>
											</g>
											<g>
												<path class="st7" d="M91.9,176.5c0,1.4-0.1,2.9,0,4.3c0.1,2.1,1.1,4.3,1.7,6.4c1.1,3.9,3,7.5,4.8,11.1
													c0.6,1.2,1.3,2.4,1.8,3.7c1.1,2.6,1.9,5.2,3.7,7.5c1.3,1.6,2.7,3.3,4.1,4.7c1.8,1.8,4.1,2.4,6.2,3.7
													c3.6,2.2,7.2,4.5,10.8,6.6c3.8,2.3,8,3.8,11.7,6.2c3.8,2.4,8.1,3.9,11.9,6.5c2.5,1.7,4.4,4.2,7,5.8
													c2.3,1.4,4.9,3.1,7.5,3.6c1.7,0.3,4,0.3,5.7,0.2c1.2-0.1,2.2-0.7,2.8-1.9c0.5-1-0.5-1.9-1-2.8c-2.2-3.5-5.3-6.4-6-10.7
													c-0.3-1.9,0.2-5.8-2.3-6.5c-1-0.3-2.4,0-3.4,0c-1.2,0-2.4,0-3.6-0.2c-3.2-0.6-6.3-1-9.4-2c-1.8-0.6-3.6-1-5.3-1.8
													c-1.9-0.9-3.6-1.9-5.4-2.9c-2.2-1.2-4.5-2.3-6.7-3.5c-2.6-1.4-5.5-2.4-8.1-3.9c-4.3-2.4-8.7-4.7-12.4-8
													c-1.4-1.2-2.7-3.1-3.7-4.7c-0.8-1.4-1.8-2.7-2.7-4.1c-1-1.6-1.8-3.3-2.8-4.8c-1.3-2-2.6-3.9-3.6-6.2
													c-0.8-1.9-1.7-3.9-2.3-5.9C92.6,175.3,91.7,174.6,91.9,176.5z"/>
											</g>
											<g>
												<path class="st7" d="M93.1,176.6c0.4,7.9,4.6,14.7,7.4,21.8c1.1,2.8,1.8,5.3,3.3,7.8c0.5,0.9,1.1,1.8,1.6,2.6
													c0.3,0.5,1.5,1.7,1.3,2.3c-2.7-1.9-5-4.9-7.3-7.4c-1.9-2-4.5-3.4-6.6-5.1c-0.9-0.7-1.9-1.3-2.8-2s-1.8-1.5-2.7-2.2
													c-1.7-1.3-2.9-2.9-4.1-4.8c-0.9-1.5-1.9-3.5-2.1-5.3c-0.2-1.9,0-3.7-0.2-5.6c-0.1-1-0.2-2-0.3-3c-0.2-1-0.4-1.8-0.4-2.9
													c-0.1-1.7-0.2-3.4-0.3-5.1c1.3,2.4,4.4,4,6.6,5.4c1,0.6,2.2,1.6,3.3,1.9c0.8,0.2,1.4,0.2,2.1,0.6
													c0.4,0.2,1.4,0.4,1.7,0.7C93.1,176.3,92.8,176.2,93.1,176.6z"/>
											</g>
											<g>
												<path class="st7" d="M146.3,226.5c-0.1,4.1,0.7,8.6,3.8,11.5c1.9,1.9,4.5,3.2,7,4.3c1.4,0.6,2.7,1.3,4.1,1.8
													c1.6,0.6,3.2,1.6,4.8,2.1c0.8,0.3,2.9,0.9,3.5,0.1c0.4-0.5,0.4-2.1,0.3-2.8c-0.2-0.9-1.1-1.7-1.4-2.7
													c-0.4-1.3-0.7-2.7-0.9-4c-0.2-1.2-0.4-2.5-0.4-3.8s-0.3-2.6-0.3-4c-0.1-1,0.4-2.7-0.1-3.6c-0.8-0.1-1.7,0.7-2.5,0.9
													c-0.9,0.3-1.8,0.4-2.8,0.4c-1.4,0-2.9,0.1-4.2-0.1c-1.6-0.2-3.2-0.7-4.8-1.2c-1.8-0.5-3.4-1.5-5.1-2
													c-1.3-0.4-1.1,1.1-0.3,1.4C147,224.8,147,224.7,146.3,226.5z"/>
											</g>
											<g>
												<path class="st8" d="M85.1,178.7c0.1,0,0.2,0.1,0.4,0.1c0.4,0.1,0.7,0.1,1.1,0.1c2.1,0.2,5.1,0.1,6.4-2
													c2-3.2-2.4-7.9-2.7-11.1c-0.3-2.8-1-5.6-1.6-8.3c-0.4-1.6-0.3-3.2-0.9-4.7c-0.7-1.8-1-3.7-2.2-5.3c-0.7-1-1-2.1-1.8-3
													c-0.6-0.7-1-1.3-1.5-2c-0.1-0.2-0.2-0.3-0.3-0.5c0,0.1,0.1,0.3,0.1,0.5c-2.1-3.2-4.6-5.3-8.7-5.5
													c-0.9,0-2.6-0.3-3.4,0.2c-1,0.5-0.9,1.2-1.1,2c-0.2,1.2-0.8,2.3-1,3.5c-0.3,2.1-2.1,0-2,2c0.2,4.1,4.2,12.6,6.3,16.2
													c0.5,0.9,1,1.8,1.4,2.7c0.4,0.8,0.7,1.7,1.4,2.3c0.5,0.5,1,0.9,1.4,1.6c0.5,0.8,1,1.6,1.6,2.3c1.8,1.9,2.4,4.6,4.1,6.6
													C82.7,177.2,83.9,178.4,85.1,178.7z"/>
											</g>
											<g>
												<path class="st8" d="M81.4,141.1c0.1,0.4,0.3,0.7,0.5,1C81.4,140.4,81.3,140.7,81.4,141.1z"/>
											</g>
											<g>
												<path class="st8" d="M133,65.9c0.2-0.1,0.5-0.1,0.7-0.1c1.8,0,3.5,0,5.3,0c3.4,0,6.8,0.1,10.2,0
													c6.9-0.1,13.6-1,20.4-2.2c3.1-0.6,6.4-1.4,9.5-0.8c2.6,0.5,5.2,1.6,7.6,2.9c4.9,2.8,8.3,7.6,10.8,12.6
													c0.7,1.3,1.2,2.7,1.8,4c0.5,1.3,0.8,2.5,1.7,3.5s1.5,1.8,1.5,3.2c0,1.2-0.5,2.4-0.3,3.6c0.1,0.7,0.5,1.3,0.7,2
													c0.3,0.8,0.6,1.5,0.8,2.3c0.5,1.6,1,3.2,1.2,4.9c0.6,3.4,0.9,6.8,1.3,10.2c0.4,3.5,0.9,7,1.1,10.5
													c0.2,3.4,0.2,6.8,0.2,10.2s0,6.7,0,10.1c0,1.6,0,3.2-0.1,4.8c-0.2,1.7-0.6,3.3-0.9,5c-1.2,6.5-2.5,13.1-4.4,19.4
													c-0.9,3-1.8,6.1-3,9c-0.7,1.6-1.2,3.2-1.8,4.7c-0.4,1-1,1.9-1.2,3c-0.7,3.2-4.1,5.9-5.4,8.9c-1,2.3-1.9,4.6-2.9,7
													s-2.2,4.6-3.8,6.7c-1.7,2-3.5,4.1-5.6,5.8c-2,1.7-4.3,3-6.6,4.4c-2.2,1.4-4.3,3.1-6.6,4.5c-2.2,1.3-4.5,2.6-7.1,2.6
													c-1.2,0-2.3,0.1-3.5,0c-1.4-0.2-2.7-0.8-3.9-1.4c-2.3-1.1-4.8-1.7-7.2-2.6c-2.4-1-4.7-2.5-7-3.8s-4.5-2.6-6.9-3.9
													c-1.2-0.6-2.4-1.2-3.7-1.8c-1.2-0.5-2.4-1-3.5-1.7s-2.1-1.5-3.1-2.4s-2-1.7-3.1-2.4c-2.2-1.4-4.5-2.6-6.6-4.3
													c-2-1.6-3.6-3.3-5.2-5.3c-0.7-0.9-1.3-1.8-1.9-2.7c-0.7-1.2-1.2-2.4-1.8-3.6c-0.9-2.2-2.8-3.7-4.2-5.6
													c-1.3-1.9-1.9-4.1-2.5-6.3c-0.7-2.4-1.5-4.7-2.1-7.2c-0.3-1.2-0.5-2.4-0.9-3.6c-0.4-1.1-0.8-2.2-1.1-3.4
													c-0.3-1.1-0.4-2,0.1-3.1c0.2-0.4,0.5-0.9,0.6-1.3c0.1-0.5,0.1-1.1,0.1-1.6c0-1.1-0.1-2.2-0.3-3.3
													c-0.1-1-0.1-2.1-0.4-3.1c-0.1-0.4-0.5-0.8-0.6-1.2c0-0.2,0-0.3-0.1-0.5c-0.3-0.5-0.9-0.8-1.3-1.1
													c-0.6-0.4-1.2-0.8-1.8-1.3c-0.4-0.3-1-0.7-1.2-1.2c-0.1-0.3,0-0.4,0-0.7c0.1-0.6,0.1-1.3-0.1-1.9
													c-0.2-1.1-0.4-2.1-0.1-3.2c0.3-0.8,0.7-1.6,0.8-2.5c0.1-1.1,0-2.2,0.2-3.4c0.9-4.4,4.2-8.1,3.8-12.7
													c-0.3-2.9-0.2-5.9-0.2-8.8c0-2.7-0.3-5.5,0.1-8.2c0.2-1.2,0.5-2.4,0.9-3.6s1.1-2.2,1.6-3.3c0.6-1.1,0.7-2.5,0.8-3.8
													c0.1-1.3,0.1-2.7,0-4c0-1.3-0.1-2.6,0.1-3.9c0.1-0.5,0.2-1.1,0.3-1.6c0-0.1,0.1-0.2,0.1-0.3c-0.1-0.3-0.3-0.1-0.5-0.3
													c-0.2-0.3,0.4-0.6,0.6-0.7c0.4-0.2,0.5-0.4,0.6-0.9c0.2-1,0.1-2,0.4-3.1c0.3-1.3,0.9-2.4,1.2-3.6
													c0.3-1.2,0.8-2.4,1.2-3.7c0.3-1,0.5-2.1,1.2-2.9c0.8-1,2.2-1.3,3.4-1.6c1.2-0.3,2.5-0.5,3.7-0.7
													c1.3-0.2,2.8-0.2,4.1-0.7c0.8-0.3,1.5-0.9,2.1-1.5c0.8-0.7,1.6-1.2,2.7-1.4c2.4-0.5,4.6-1.4,6.9-1.9
													c0.9-0.2,2-0.4,2.9-0.3c1.1,0.1,2.1,0.6,3,1.1s1.7,1,2.6,1.5c0.7,0.4,1.8,1.1,2.7,1c0-0.3-0.4-0.5-0.3-0.9
													C132.3,66.1,132.6,66,133,65.9z"/>
											</g>
											<g>
												<path class="st3" d="M167.2,133.7c0.5-0.6,0.9-1.1,1.6-1.5c0.6-0.3,1.1-0.5,1.8-0.6c0.6-0.1,1.2-0.2,1.8-0.4
													s1.3-0.2,1.9-0.5c0.5-0.2,0.9-0.4,1.4-0.5c0.4-0.1,0.8-0.2,1.2-0.3c0.7-0.2,1.4-0.4,2.1-0.6c0.6-0.2,1.1-0.3,1.7-0.4
													c1.6-0.3,3.4-0.2,5,0.2s3.4,0.6,4.6,1.8c0.7,0.6,1.3,1.3,2,1.9c0.5,0.4,0.7,0.8,1,1.4c0.2,0.3,0.5,0.6,0.7,1
													c0.1,0.2,0.1,0.2-0.1,0.3c-0.3,0.1-1.4-2.2-1.7-2.1c-0.5,0.2-1.4,1.1-1.9,1.2c-1.4,0.2-1.9,0.9-3.4,1
													c-1.2,0.1-2.2,0.8-3.4,0.8c-1.4,0-2.7,0.3-4,0.4c-0.5,0-1.1,0-1.6,0c-0.7,0-1.4,0.1-2.1,0c-0.4-0.1-0.8-0.3-1.2-0.5
													c-0.7-0.2-1.4-0.5-2.1-0.7c-0.5-0.2-1-0.5-1.5-0.7c-0.4-0.1-0.9-0.2-1.3-0.3c-0.6-0.1-1-0.4-1.5-0.7
													C167.9,133.8,167.4,133.6,167.2,133.7z"/>
											</g>
											<g>
												<path class="st3" d="M145.2,132.3c-0.3,0.6-0.6,1.2-1.1,1.7c-0.3,0.3-0.7,0.7-1,0.9c-0.5,0.3-1.1,0.4-1.7,0.5
													c-1.1,0.2-2.1,0.5-3.2,0.6c-0.7,0.1-1.3,0.1-2,0.2c-1.3,0.1-2.7,0.2-4,0.5c-2,0.4-3.8,1.1-5.8,1
													c-0.6-0.1-1.1-0.2-1.7-0.4s-1.2-0.3-1.8-0.5c-0.9-0.3-1.8-0.9-2.7-1.3c-0.9-0.4-2.1-0.6-2.9-1.3
													c0.1-0.2-0.3-0.3-0.1-0.4c0.8-0.5,2.2-0.8,2.9-1.3c1.4-1,2.8-2.1,4.1-3.3c1.4-1.2,3.3-1.3,5-1.6c1.7-0.3,3.3-0.5,5-0.3
													c1.2,0.2,2.3,0.7,3.5,1.1c0.6,0.2,1.1,0.5,1.7,0.7c0.5,0.2,1.1,0.2,1.6,0.4c1.1,0.3,2.1,0.8,3.2,1.3
													c0.4,0.1,0.3,0.1,0.5,0.4C144.8,131.5,144.8,131.5,145.2,132.3z"/>
											</g>
											<g>
												<path class="st9" d="M170.5,125.7c0.1-0.8,0.4-1.4,0.9-2.1c0.3-0.4,0.7-0.9,1-1.3c0.2-0.3,0.4-0.7,0.6-0.9
													c0.3-0.4,0.9-0.6,1.4-0.7c1.7-0.4,3.4-0.5,5.2-0.5c1.6,0,3.3-0.1,4.9-0.1c1.6,0,3.3,0.1,4.9-0.2c0.9-0.1,2-0.6,3-0.4
													c0.6,0.1,0.9,1.2,1.3,1.7c0.2,0.3,0.4,0.5,0.6,0.8c0.2,0.4,0.4,0.8,0.7,1.1c0.7,0.7,1.7,1.2,2.5,1.7
													c0.3,0.2,0.6,0.3,0.9,0.4c0.6,0.1,1.1,0.1,1.7,0.3c0.4,0.1,1.1,0.2,1.3,0.7c0.4,0.9-1.3,1.1-1.8,1.1
													c-1.9,0.1-3.6-0.5-5.4-0.9c-1.4-0.3-2.7-0.7-4.1-1c-0.6-0.1-1.2-0.2-1.8-0.3c-0.8-0.1-1.5-0.4-2.3-0.4
													c-1.4-0.1-2.8,0.1-4.2,0.3c-1,0.2-2,0.4-2.9,0.6c-1,0.2-2,0.6-3,0.6c-0.5,0-0.9,0-1.4,0c-0.4,0-0.9,0.2-1.3,0.2
													c-0.4,0.1-1.5,0.2-1.9,0c-0.1-0.1-0.2-0.3-0.4-0.4C170.7,125.7,170.4,125.7,170.5,125.7z"/>
											</g>
											<g>
												<path class="st9" d="M149.7,123.6c-0.9,0-1.7-0.1-2.5-0.5c-0.9-0.3-1.7-0.7-2.4-1.3c-0.8-0.5-1.6-1.2-2.5-1.6
													c-0.6-0.3-1.1-0.3-1.8-0.3c-1.5,0-3,0.2-4.6,0.3c-1.1,0-1.3,0-2.2-0.5c-0.5-0.3-1.1-0.5-1.7-0.8
													c-0.8-0.4-1.7-0.5-2.6-0.6c-0.8-0.1-1.9-0.2-2.6,0.1c-1.5,0.6-3,1.3-4.5,2.1c-0.7,0.4-1.4,0.7-2.2,1
													c-0.5,0.2-1.1,0.4-1.6,0.6c-0.3,0.2-0.7,0.3-0.9,0.6c-0.2,0.3-0.4,0.8-0.5,1.1c0,0.2,0,0.5-0.1,0.6
													c0.5-0.1,1,0.2,1.4,0.2c0.7,0.1,1.5,0.2,2.3,0.2c1.3,0,2.5-0.1,3.8-0.3c1.6-0.4,3.1-0.7,4.7-0.9c2-0.2,4-0.5,6-0.5
													c1.1,0,2.3-0.1,3.4,0.1c0.7,0.1,1.2,0.4,1.9,0.7c1.1,0.5,2.2,1.2,3.3,1.8c1.2,0.6,2.6,1.3,3.9,1.3c1,0,1.8-0.3,2.8-0.6
													c0.2-0.1,0.4-0.1,0.5-0.4c0.1-0.2,0-0.6,0-0.8c-0.1-0.3-0.2-0.7-0.4-0.9C150.7,124.3,150.4,123.8,149.7,123.6z"/>
											</g>
											<g>
												<path class="st7" d="M153.8,117.5L153.8,117.5c0.1-3.2,0.1-6.3,0.3-9.4c0-0.8-0.5-2.3-0.1-2.9c0.4,0.1,0.5,0.6,0.5,1
													c0.2,1,0.4,2.1,0.5,3.1c0.2,2.3,0.1,4.6,0.1,6.9c0,0.6,0,1.3,0,1.9c-0.1,2.1-0.3,4.3-0.7,6.3c-0.1,0.7-0.2,1.4-0.3,2
													c-0.2,0.7-0.4,1.4-0.5,2c-0.2,0.7-0.4,1.4-0.6,2c-0.2,0.6-0.3,1.2-0.8,1.7c-0.3,0.2-0.6,0.6-1,0.7
													c-0.6,0.2-0.9-0.5-1.2-0.9c-0.2-0.3-0.4-0.6-0.6-0.9c-0.5-0.5-1-1-1.5-1.5c-0.7-0.9-1.3-1.8-2.2-2.5
													c-0.5-0.4-1.1-0.6-1.7-0.9c-0.3-0.2-1.4-0.6-1.5-1c0.4-0.1,0.7,0,1-0.1c0.7-0.2,1.3-0.4,2-0.6c1.2-0.3,2.4-0.4,3.6-0.9
													c0.9-0.4,1.8-0.9,2.8-1.1c0.4-0.1,0.7-0.2,1.1-0.4C154,121.3,153.8,119,153.8,117.5z"/>
											</g>
											<g>
												<path class="st7" d="M164.8,110.3c-0.3,0.1-0.5,0.2-0.6,0.5c-0.5,1.3-1,2.5-1.3,3.9c-0.5,2.2-0.5,4.6-0.3,6.9
													c0.2,2.1,0.4,4.1,1.3,6c0.4,0.9,0.9,1.8,1.4,2.7c0.3,0.4,0.6,0.9,0.9,1.3c0.2,0.2,0.2,0.6,0.5,0.7
													c0.6,0.5,1.5-0.6,2.1-0.8c1.4-0.6,3.1-1.1,4.3-2c0.5-0.4,0.9-0.8,1.5-1.1c0.5-0.3,1.1-0.6,1.6-0.9
													c0.3-0.1,0.6-0.3,0.9-0.4c0.2-0.1,0.4-0.1,0.6-0.2c0.3-0.2,0.6-0.6,0.9-0.8c0.3-0.2,0.6-0.4,0.9-0.6
													c0.4-0.3,1-0.5,1.2-1c-0.9-1.1-2.7-1.3-4-1.3c-0.8,0-1.8-0.1-2.6,0.1c-0.3,0.1-0.6,0.2-0.9,0.3
													c-0.3,0.1-0.6,0.1-0.9,0.3c-0.6,0.2-1.1,0.5-1.6,0.7c-1.1,0.3-2.4,0.4-3.4-0.1c-0.3-0.1-0.5-0.3-0.7-0.5
													c-0.1-0.2-0.1-0.3-0.2-0.4c-0.1-0.4-0.1-0.6-0.3-1c-0.5-1.1-0.6-2.2-0.9-3.3c-0.3-1.1-0.4-2.2-0.4-3.4
													c0-1.1,0-2.2,0-3.3c0-0.3-0.1-0.6,0-0.9C164.9,111.1,165.1,110.3,164.8,110.3L164.8,110.3z"/>
											</g>
											<g>
												<path class="st10" d="M173.1,130.5c-0.2,0.7-0.4,1.3-0.4,2.1c0,0.2,0,0.5,0,0.7c0.1,0.3,0.3,0.6,0.4,0.9
													c0.4,0.8,0.8,1.6,1.5,2c0.2,0.2,0.5,0.3,0.8,0.4c0.2,0,0.3,0.1,0.5,0.1c0.3,0.1,0.5,0.1,0.8,0.1c0.8,0.2,1.9,0.3,2.7,0
													c0.5-0.1,0.8-0.5,1.2-0.7c0.3-0.2,0.6-0.4,0.9-0.7c0.7-0.7,1-2,1-3c0-0.4,0.1-0.9,0-1.4c0-0.3-0.2-1.1-0.4-1.3
													s-1-0.1-1.3-0.1c-0.4,0-0.8,0-1.3,0c-1.2,0-2.4,0-3.5,0c-0.6,0-1,0-1.6,0.1C174,130,173.6,130.2,173.1,130.5z"/>
											</g>
											<g>
												<path class="st11" d="M181.2,137.8c0.4,0,0.9-0.2,1.3-0.2c0.3-0.1,0.5-0.1,0.8-0.2c2-0.8,4.2-1.3,6.2-2.1
													c0.4-0.2,0.7-0.5,1.1-0.7l-0.1-0.1c-0.4-0.2-0.6-0.5-1.1-0.4c-0.5,0-1.1,0.2-1.5,0.5c-0.7,0.4-1.5,0.7-2.3,1
													s-1.5,0.7-2.3,0.9c-0.7,0.2-1.4,0.3-2,0.3c-0.4,0-0.8,0-1.2,0c-0.1,0-1-0.1-0.7,0.2c-3.2-0.7-6.5-1.5-9.7-2.3l-0.5,0.1
													c0.5,0,1,0.5,1.5,0.6c0.8,0.3,1.6,0.9,2.4,1.2c1.1,0.5,2.2,0.8,3.3,1c0.7,0.1,1.4,0.2,2.1,0.2c0.5,0,0.9,0,1.4,0
													C180.3,137.8,180.8,137.9,181.2,137.8z"/>
											</g>
											<g>
												<path class="st12" d="M169.5,132.2c0-1,0-1.9,0.4-2.8c0.2-0.5,0.4-1,0.7-1.5c1.1-2,3.5-2.8,5.6-3c1-0.1,2.1-0.1,3.1-0.1
													c1.1,0,2.2,0,3.3,0c1.9,0,3.8,0.3,5.7,0.9c1.1,0.3,2.2,0.7,3.3,1.1c0.6,0.2,1.1,0.3,1.7,0.6c0.5,0.2,0.9,0.5,1.4,0.8
													c1,0.6,2.1,1,3.1,1.6c0.9,0.5,1.9,1.1,2.8,1.8c0.6,0.4,1.4,0.8,1.5,1.7c0,0.2,0,0.4,0,0.6c-0.1,0.5-0.9,0.8-1.3,1
													c-1.3,0.8-2.6,1.6-4.1,1.9c-1.2,0.2-2.4,0.2-3.6,0.2c-0.6,0-0.9-0.4-1.3-0.8c-0.7-0.8-1.4-1.4-1.9-2.3
													c-0.5-0.9-1.3-1.3-1.9-2.1c-0.8-0.9-2-1.3-3.1-1.7c-2.1-0.7-4.5-0.6-6.7-0.2c-1.1,0.2-2.1,0.4-3.2,0.6
													c-1,0.2-2,0.4-3,0.8c-0.5,0.2-0.9,0.6-1.4,0.8C169.9,132.1,169.5,132.1,169.5,132.2z"/>
											</g>
											<g>
												<path class="st11" d="M143.1,134.4c-0.1,0.1-0.2,0.1-0.3,0.1c-0.2,0-0.5-0.1-0.7-0.1c-0.3,0-0.6,0-0.8-0.1
													c-0.5,0-1.1-0.1-1.6-0.1c-1.1,0-2.2,0.2-3.2,0.5c-1.1,0.3-2.1,0.5-3.2,0.7c-2.6,0.5-5.4,0.4-8.1,0.4
													c-1.7,0-3.3-0.2-4.9-0.8c-1-0.4-2-0.9-3-1.3c-0.2-0.1-0.4-0.2-0.7-0.3c-0.2,0-0.4-0.1-0.5,0.1c-0.1,0.2-0.5,0.2-0.5,0.4
													s-0.3,0.1-0.5,0.2c-0.2,0.1-1.1,0.3-1.3,0.4c-0.2,0.1,0.5,0.7,1,0.9c0.3,0.1,0.5,0.1,0.8,0.1c0.8,0.2,1.5,0.7,2.4,1
													s1.8,0.5,2.6,0.7c1,0.3,1.9,0.5,2.9,0.6s2.1,0,3.1,0c0.6,0,1.3-0.1,1.9-0.1c1-0.1,1.9-0.3,2.9-0.4
													c1-0.1,1.9-0.3,2.9-0.4c1.2-0.1,2.3-0.4,3.5-0.6c0.5-0.1,1.1-0.2,1.6-0.2c1.1-0.1,2.2-0.1,3.2-0.4
													c0.4-0.1,0.9-0.2,1.3-0.5c0.2-0.1,0.6-0.4,0.5-0.7c0-0.2-0.2-0.3-0.3-0.3s-0.2-0.1-0.3-0.1s-0.2-0.1-0.3-0.2
													c-0.2-0.1-0.3,0-0.4,0.2C143.2,134.3,143.1,134.4,143.1,134.4z"/>
											</g>
											<g>
												<path class="st12" d="M148.8,131.3c-0.7-0.8-1.4-1.6-2.2-2.3c-1.4-1.4-3.2-2.1-5.1-2.7c-1.2-0.4-2.6-0.6-3.8-0.9
													c-1.6-0.4-3.1-0.8-4.7-1.2c-2.9-0.7-5.8-1.4-8.8-1.1c-0.7,0.1-1.4,0.3-2.1,0.3c-0.5,0-1,0-1.5,0.2
													c-0.8,0.3-1.3,0.7-1.9,1.3c-0.6,0.6-1.1,1.2-1.7,1.7c-0.5,0.4-1,0.7-1.5,1.1c-0.4,0.3-0.7,0.7-1.1,0.9s-0.7,0.5-1,0.8
													c-0.9,0.9-2,1.6-2.8,2.6c-0.6,0.8-1.6,2-1.8,3.1c3-0.1,6-0.3,8.9-1.2c1.6-0.5,3.2-1.2,4.7-1.7c1.1-0.9,2.3-1.7,3.7-2
													c1.3-0.3,2.7-0.3,4-0.3s2.6,0,3.9,0c0.4,0,0.7,0,1.1,0.1c0.9,0.1,1.8,0,2.7,0.1c1.1,0.1,2.3,0.4,3.3,0.7
													c0.7,0.2,1.3,0.6,1.9,1c0.7,0.6,1.6,1,2.4,1.5c1.5-0.6,2.3-1.3,3.2-1.4C149.2,131.8,149.2,131.7,148.8,131.3z"/>
											</g>
											<g>
												<path class="st10" d="M134.2,129.6c-1-0.1-2.1-0.4-3.1-0.3c-0.7,0-1.4,0.1-2.1,0.1c-0.9,0-1.8,0.2-2.6,0.3
													c-0.4,0-0.9-0.1-1.2,0.4c-0.1,0.2-0.1,0.5-0.1,0.6c-0.1,0.3-0.1,0.6-0.2,0.9c-0.1,0.5-0.2,0.9,0,1.4s0.3,1,0.6,1.4
													c0.2,0.2,0.3,0.5,0.5,0.6s0.4,0.2,0.6,0.3c0.5,0.2,1,0.3,1.5,0.4c0.2,0,0.5,0.2,0.7,0.2s0.3,0,0.5,0.1
													c0.3,0,0.7,0.1,1,0.1c0.3,0.1,0.6,0,0.9,0c0.4-0.1,0.8-0.3,1.1-0.4c0.2-0.1,0.4-0.3,0.6-0.4c0.3-0.2,0.4-0.4,0.6-0.7
													c0.3-0.3,0.4-0.5,0.5-0.9c0.2-0.5,0.2-1.1,0.3-1.7c0.1-0.4,0.2-0.8,0.1-1.2C134.5,130.5,134.3,129.7,134.2,129.6z"/>
											</g>
											<g>
												<path class="st13" d="M149.9,153.3c0.3,0.2-0.3,1.3-0.4,1.4c-0.4,0.7-0.6,1.4-1,2c-2.1,3.4-5.8,6.4-1.8,10.2
													c0.9,0.9,2,1.6,3.2,1.9c0.6,0.1,1.1,0.2,1.7,0.3c0.6,0.1,1.2,0.4,1.6-0.1c-2.1-2.1-6.5-3-6.8-6.5c0-0.5-0.1-1.1,0-1.7
													c0.4-2.4,3-3.7,3.4-6.2c0-0.2,0.1-0.5,0.1-0.7s-0.1-0.4-0.1-0.6C149.9,153.3,149.9,153.3,149.9,153.3z"/>
											</g>
											<g>
												<path class="st14" d="M151.1,164.4c-0.1-1.6,1.5-2.3,2.9-2.5c1.2-0.2,2.7,0.5,3.7,1c0.5,0.2,1,0.4,1.5,0.7
													c0.3,0.2,0.5,0.5,0.8,0.7c0.6,0.5,1.2,1.4,1.4,2.2c0.1,0.3,0.1,0.9-0.1,1.1c-0.2,0.1-1.1,0-1.4,0
													c-0.6,0-1.1-0.1-1.7-0.2c-0.4-0.1-0.5,0-0.9-0.2c-0.3-0.1-0.5-0.3-0.8-0.4c-0.6-0.3-1.1-0.5-1.8-0.7
													c-0.6-0.1-0.9-0.4-1.4-0.7C152.7,165,151.6,164.7,151.1,164.4z"/>
											</g>
											<g>
												<path class="st14" d="M170.4,163.1c-0.6,0.6-2.1,2.5-2.1,4c0,0.8,0.7,0.4,1.2,0.3c1-0.3,1.5-0.8,2-1.6
													c0.4-0.6,1.2-1.2,1.4-1.9c0.4-1.2-1.4-1.1-2.1-1.1L170.4,163.1z"/>
											</g>
											<g>
												<path class="st13" d="M181.2,202.5c-0.2-0.2-0.3-0.4-0.4-0.7c-0.4-0.7-0.8-1.2-1.3-1.9c-0.8-1-1.6-2.1-2.6-3
													c-0.8-0.8-1.7-1.4-2.4-2.3c-1.2-1.4-1.2-3.7-1.2-5.5c0-1-0.1-2,0.2-2.9c0.2-0.5,1.3-1.1,1.3-1.8c0,2.1-0.4,4.8,0.6,6.7
													c0.4,0.8,0.8,1.9,1.4,2.6c0.7,0.9,1.4,1.9,2.2,2.8c0.5,0.6,1.1,1,1.5,1.6c0.5,0.7,0.7,1.4,0.9,2.2
													c0.1,0.6,0.4,1,0.4,1.6c0,0.4,0.3,1.6,0,1.2L181.2,202.5z"/>
											</g>
											<g>
												<path class="st9" d="M193.2,72.4c2.1,3.8,3.8,7.8,5.5,11.7c1.7,3.9,2.7,7.8,3.6,12c0.6,3,1.5,5.8,1.9,8.8
													c0.4,3.5,0.9,7,1.2,10.6c0.4,4.6,0.4,9.3,0.3,13.9c1.5,0.9,2.9,2.2,3.9,3.9c0.1-0.9,0.2-1.8,0.2-2.8
													c0.1-3.3,0.4-6.4,1.5-9.5c1.4-4.1,1.5-9.2,1-13.4c-0.3-2.7-0.8-5.3-1-7.9c-0.2-3.2,0.2-6.4-0.7-9.6
													c-0.7-2.7-1.6-5.5-2.8-8c-0.6-1.4-2-2.4-2.9-3.6c-2.5-3-5.4-5.6-8.7-7.5c-1.4-0.8-2.8-1.7-4.1-2.5
													c-0.3-0.4-1.6-1.1-2.8-0.8c0.1,0.4,0.8,0.8,1.1,1.2C191.5,70,192.5,71.1,193.2,72.4z"/>
											</g>
											<g>
												<path class="st9" d="M95.2,81.6c-0.4,0.4-0.4,4.2-0.6,4.8c-0.5,1.4-0.2,3-0.2,4.5c0.2,7.1-1.3,10.7-2.1,17.7
													c-0.8,7.1-1.4,14.2-2.5,21.2c-0.5,3.4-1.2,6.9-1.6,10.3c-0.1,0.8-0.2,1.6-0.3,2.3c-0.1,0.7-0.4,1.4-0.3,2.1
													c0.1,0.3,0.2,0.8,0.6,0.5c0.5-0.4,0.2-1.2,0.1-1.7c-0.7-2.6-0.9-5.4-2.9-7.4c-2.1-2.1-5.2-2.8-8.1-2.9
													c-0.8,0-1.6-0.1-2.4,0.1c-0.7,0.1-1.5,0.6-2.2,0.4c-1-0.3-0.9-1.6-0.8-2.4c0.3-3.4,0.8-6.8,0.7-10.2
													c-0.1-3.5-0.6-7-1-10.4c-0.5-3.5-0.9-6.9-1.2-10.4c-0.3-3.5-0.6-7-0.2-10.5c0.3-3.3,1.2-6.5,2.4-9.5
													c1.9-4.6,4.5-9,7.7-12.8c2.1-2.5,4.5-4.7,6.9-6.7c0.7-0.6,2-1.7,2.8-0.8c0.4,0.5,0.4,1.1,0.5,1.7c0,0.7,0.1,1.5,0.4,2.2
													c0.9,2.7,3.3,4.6,4.4,7.2c0.6,1.5,2.5,0.1,2.8,1.6c0.3,1.4-0.9,6-1.4,7.3C96.5,80.6,95.9,81.1,95.2,81.6z"/>
											</g>
											<g>
												<path class="st9" d="M87.3,60.6c-0.3,1.3-1.5,2.7-2.3,3.6c-1.3,1.3-2.1,3.5-2.2,5.4c-0.1,3.8,1.9,6.7,5.3,8.3
													c0.7,0.3,1.5,0.4,2.3,0.4c1,0,1.2,0,1.8-0.7c1.5-1.7,2.7-3.6,4.6-4.9c1.6-1.2,3.4-2.1,5.2-3.1c1.4-0.8,2.6-1.7,3.9-2.6
													c1.8-1.1,3.6-2.1,5.4-2.9c0.9-0.4,1.7-0.8,2.6-1.2c2-0.9,3.9-1.2,6-1.5c4.1-0.6,8.1-1.6,12.3-2c2.2-0.2,4.5-0.4,6.7-0.6
													c2.8-0.2,5.6,0,8.4-0.1c4.6-0.2,9.2-0.2,13.7-0.5c3.4-0.2,7-0.5,10.3,0c3.2,0.5,6.2,2.3,9,3.8c2.1,1.2,3.4,2.7,5.3,4.2
													c0.6,0.5,1.4,0.9,2,1.4c1,0.7,1.7,1.6,3,1.4c0.2-3.3-2-5.8-4.1-8.2c-1.5-1.7-3.1-3.4-4.9-4.9c-2.2-1.8-5-3.1-7.5-4.7
													c-2.4-1.5-5.2-2.2-7.7-3.4c-2.8-1.3-5.8-2.4-8.7-3.6c-1.7-0.8-3.4-1.3-5.2-2c-1.2-0.4-2.3-1-3.5-1.2
													c-2-0.4-4.1-0.3-6.1-0.6c-3.5-0.5-7.1-1.1-10.6-1.2c-1.6,0-3.2-0.2-4.7,0.4c-1.4,0.5-2.7,0.6-4.1,0.8
													c-2.1,0.2-4.1,0.7-6.1,1.2c-3.2,0.8-6.7,1.5-9.4,3.3c-1.5,1-2.6,2.3-4.2,3.1c-2.1,1.1-4.1,2.3-6.1,3.6
													c-1.4,0.8-2.6,1.6-3.8,2.7c-0.7,0.6-1.5,1.1-2.1,1.8c-0.4,0.5-0.7,1-1.2,1.5c-0.5,0.4-1.1,0.7-1.5,1.2
													C88.9,59,88.9,59.4,87.3,60.6z"/>
											</g>
											<g>
												<path class="st8" d="M88.2,142.9c0-3-1.2-5.1-2.7-7c-0.9-1.2-1.9-2.1-3.4-2.6c-1.6-0.6-4.9-1.1-6.6-1.4
													c-2.3-0.3-4.9-0.8-6.9,0.7c-1.6,1.2-2.3,3.4-2.3,5.4c0,1.7-0.3,3.3-0.4,5c-0.1,2.1,1,4.4,1.7,6.4c1.1,3.1,2.7,6,3.9,9.1
													c0.7,1.6,1.3,3.3,2.1,4.9c0.7,1.5,1.6,2.7,2.5,4.1c0.5,0.9,1.2,1.4,1.9,2.3c0.5,0.7,1.1,2,2.1,2c-0.6-0.9-1-1.7-1.5-2.6
													c-0.3-0.6-0.8-1.1-1.1-1.6c-0.3-0.7-0.5-1.3-0.9-2c-0.4-0.5-0.8-0.9-1.1-1.6c-0.3-0.6-0.4-1.3-0.8-1.9
													c-0.8-1.4-1.6-2.8-2.2-4.3c-1.1-2.6-2.2-5.2-2.9-8c-0.6-2.2-0.7-4.4-0.7-6.6c0-1,0.6-1.6,1.1-2.4
													c0.7-1.1,1.6-1.2,2.6-1.7s1.5-0.8,2.6-0.8c1,0,2.5-0.4,3.2,0.4c0.7,0.7,1.1,1.9,1.7,2.7c0.6,1,1.6,2,2.3,2.9
													c0.8,0.8,1.1,1.8,1.9,2.7s1.5,1.8,2.1,2.8c0.3,0.5,0.5,1,0.9,1.4c0.3,0.3,0.8,1.2,1.2,1.3c1.2,0.5,0.9-1,0.9-1.7
													c0-1.1,1.1,2,1,0.9C90.5,150.8,88.3,145.1,88.2,142.9z"/>
											</g>
											<g>
												<path class="st14" d="M88.7,150.7c-0.1-0.4-0.3-0.7-0.5-1.1c-0.4-0.7-0.9-1.2-1.5-1.8c-0.6-0.6-1.1-1.1-1.7-1.6
													c-0.5-0.4-1-1-1.6-1.3c-0.5-0.3-0.9-0.1-1.1,0.5c-0.2,0.7-0.2,1.2-0.5,1.9c-0.4,0.6-0.8,1.1-1.1,1.8
													c-0.3,0.8-0.4,1.6-0.3,2.5c0.2,1.7,1.1,3,2.2,4.1c0.7,0.6,1.4,1.1,2.1,1.8c0.7,0.7,1.1,1.6,1.6,2.5c0.5,1,1,1.9,1.5,2.9
													c0.2,0.4,0.4,0.8,0.6,1.3c0.8,2.2,1.2,0.1,1.4-1.2c0.2-1.7,0.1-3.5,0-5.3c-0.2-1.9-0.5-3.8-0.7-5.8
													C88.9,151.4,88.8,151,88.7,150.7z"/>
											</g>
											<g>
												<path class="st7" d="M84.2,146c-0.3-0.7-0.8-1.7-1.8-1.5c-1.3,0.3-2.8,1.8-3.2,3c-0.3,1-0.4,2.2-0.5,3.2
													c-0.1,1.5-0.4,3.1-0.2,4.6c0.1,0.8,0.6,1.5,1,2.2c0.3,0.5,0.6,1.1,1,1.6c0.7,0.8,1.8,1.4,2.5,2c0.9,0.8,2,1.4,2.9,2.2
													c0.6,0.6,1.1,1.4,2,1.7c0.5,0.2,0.8,0.2,1-0.4c0.1-0.4,0-1.1,0-1.6c0-0.6-0.2-1.1-0.4-1.6c-0.5-1-0.9-1.5-1.6-2.3
													c-0.8-0.8-1.6-1.5-1.9-2.6c-0.2-0.6-0.1-1.3-0.2-1.9c-0.1-1.3-0.4-2.7,0.1-4c0.2-0.6,0.3-1.2,0.2-1.9
													c-0.1-0.7-0.5-1.4-0.7-2.1C84.1,146.4,83.9,145.7,84.2,146z"/>
											</g>
											<g>
												<path class="st14" d="M76,138.4c-0.4,1.4-1.1,2.7-1.4,4.1c-0.2,1.1-0.4,2.1-0.4,3.3c0,1.8-0.1,3.6,0,5.3
													c0.1,2.3,1.1,4.4,2,6.6c0.5,1.3,1.1,2.6,2.1,3.6c0.4,0.4,0.9,0.7,1.2,1.2c0.2,0.3,0.2,0.6,0.5,0.8
													c0.3,0.3,1.4,1.2,1.3,1.7c-0.1,0.8-1.8-1.3-2-1.5c-0.5-0.6-1-1.2-1.5-1.8c-0.6-0.6-1.3-1.2-2-1.8
													c-1.1-1.2-2.1-2.5-3-3.8c-0.9-1.4-1.6-2.9-2.5-4.3c-0.7-1.1-0.9-2.2-1.1-3.5c-0.1-0.9-0.3-1.9-0.3-2.8
													c0-0.8-0.2-1.4-0.2-2.2c-0.1-1-0.1-2.3,0.1-3.3s1-1.4,1.9-1.7c1.3-0.5,2.8-1,4.2-1.1c0.5,0,0.6,0.1,0.8,0.4
													C75.7,138,76,138.4,76,138.4z"/>
											</g>
											<g>
												<path class="st3" d="M81.5,186.7c2.9,2.9,6,5.6,8.9,8.4c2.6,2.5,5.7,4.5,8.6,6.8c2.7,2.1,5.8,3.7,8.4,5.8
													c2.7,2.2,5.5,4.2,8.4,6.2c4.3,2.9,8.5,5.9,12.8,8.8c3.7,2.5,7.5,5.4,11.7,7.1c7.8,3.2,15.5,6.5,23.3,9.8
													c2,0.8,9.4,2.6,5.1,5.5c-2,1.4-3,2.1-4.5,4.2c-2.2,3-4.6,5.8-6.7,8.9c-3.5,5-8.5,8.5-12.8,12.9
													c-1.8,1.9-4.3,5.2-7.2,5.3c-0.1-1.3-1.2-2.4-1.8-3.5c-1.2-2-2.5-3.7-3.9-5.5c-3.7-4.8-7.9-9.1-11.9-13.7
													c-10.2-11.6-20.1-23.6-29-36.2c-3.2-4.5-6.3-9-9.4-13.7c-0.8-1.2-2.1-2-2.2-3.5c-0.1-2.2,0.2-4.4,0.7-6.5
													c0.3-1.2,0.7-2.4,1-3.5C81.2,189.4,81.3,188.6,81.5,186.7z"/>
											</g>
											<g>
												<path class="st3" d="M167.2,246.6c0.1,0.1,0.2,0.2,0.3,0.3c2.3-0.5,4.4-1.8,6.8-2.3c3-0.7,6-0.7,8,1.5
													c1.5,1.7,2.8,3.6,3.3,5.8c0.2,0.7-0.1,1.5,0.1,2.2c0.1,0.6,0.6,1.2,0.7,1.9c2.2,0.3,0.2-6.2,0-6.9
													c-0.9-4-1.5-8-2.5-11.9c-0.6-2.2-0.6-4.5-1.2-6.7c-0.4-1.6-0.9-3.2-1.3-4.8c-0.3-1.4-0.9-2.8-1.5-4.1
													c-0.3-0.6-0.8-3.3-1.6-3.5c-2.3,0.8-2.6,3.7-3.1,5.5c-0.9,3.1-0.9,6.4-2,9.4c-1,2.7-1.8,5.4-2.9,8.1
													c-0.7,1.9-2.2,4.4-3.6,5.9C166.8,246.8,166.7,246.7,167.2,246.6z"/>
											</g>
											<g>
												<path class="st12" d="M118.3,115.2c1-0.8,1.7-1.6,2.9-2c0.5-0.2,1.1-0.4,1.6-0.6c1.7-0.8,3.3-1.8,5-2.4
													c3.7-1.4,8-1.3,11.9-0.9c1.1,0.1,2.2,0.3,3.3,0.3c1.8,0,3.6,0,5.3,0c0.9,0,1.9-0.1,2.8-0.3c0.5-0.1,1.1-0.4,1.6-0.6
													c0.2-0.1,1-0.5,1.1-0.4c-3.4,0.9-7.1,0.7-10.6,0.7c-0.7,0-1.5,0-2.2,0c-1.2,0-2.3-0.3-3.5-0.4c-2.5-0.2-5.1,0-7.6,0
													c-1.5,0-3.2,0.2-4.6,0.9c-1.3,0.6-1.9,1.4-2.7,2.5c-0.8,1-1.7,1.9-2.7,2.7c-0.2,0.2-0.5,0.5-0.7,0.6
													C118.8,115.3,118.4,115.3,118.3,115.2z"/>
											</g>
											<g>
												<path class="st12" d="M121.9,100.8c0.6-0.2,1.1-0.2,1.7-0.3c1.2-0.2,2.5-0.1,3.8-0.4c1.6-0.4,3.3-0.6,4.9-1.2
													c2.2-0.8,4.2-1.8,6.5-2.2c2-0.4,4.2-0.3,6.2-0.4c2.6-0.1,5.1,0,7.7-0.1c1,0,1.9,0.4,2.9,0.4c1.3,0,2.2-1,3.4-1.3
													c1.3-0.3,2.6-0.2,3.9-0.2c2.3,0,4.6,0,6.8,0.3c1.3,0.2,2.9,0.3,4.1,0.9c1.2,0.6,2.2,1.4,3.5,1.9
													c1.7,0.7,3.5,1.1,5.1,1.9c0.6,0.3,1.3,0.5,1.9,0.8c0.6,0.3,1.8,1.4,1.6,2.2c-0.4-0.1-0.8-0.6-1.1-0.9
													c-0.5-0.4-0.9-0.7-1.6-0.9c-1.2-0.4-2.5-0.5-3.7-0.8c-1.1-0.2-2-0.9-3-1.2c-1.1-0.3-2.1-1-3.2-1.3
													c-1.1-0.3-2.1-0.8-3.2-1c-1.6-0.3-3.3-0.1-4.9-0.2c-1,0-1.7-0.2-2.7-0.1c-0.7,0.1-1.4,0.1-2.1,0.3
													c-1.5,0.3-3.1,0.6-4.6,0.9c-1.4,0.3-3.2,0.1-4.6-0.2c-0.9-0.1-1.8,0-2.8,0c-1.8,0-3.5,0.2-5.2,0.2c-2,0-3.9,0-5.8,0.2
													c-0.7,0.1-1.4-0.1-2.1,0.2c-0.6,0.2-1.1,0.5-1.6,0.8c-0.7,0.3-1.7,0.5-2.5,0.7c-0.7,0.2-1.5,0.5-2.3,0.6
													s-1.7,0.1-2.5,0.3c-0.5,0.1-1.1,0.2-1.6,0.2c-0.9,0-1.8-0.1-2.7-0.3C122,100.3,122.2,100,121.9,100.8z"/>
											</g>
											<g>
												<path class="st12" d="M150.2,83.8c1,0,2,0.1,3,0.1c1.6-0.1,3.1-0.2,4.6-0.3c1.3-0.1,2.6-0.3,3.9-0.4c1-0.1,2-0.2,3-0.3
													c1.8-0.1,3.7,0.1,5.2,0.6c0.7,0.2,1.2,0.5,2.1,0.6c0.7,0.1,1.3,0,1.9,0.1c-1.1,0-2.2,0.1-3.3,0.1c-0.9,0-1.8,0-2.7,0
													c-0.8-0.1-1.5-0.2-2.3-0.2c-1.1,0-2.2,0-3.2,0c-1.2,0-2.4,0-3.7,0c-1.4,0-2.7,0.1-4,0.1c-0.8,0-1.6,0-2.4,0
													C151.4,84.3,150.9,84.1,150.2,83.8z"/>
											</g>
											<g>
												<path class="st15" d="M108.8,125c-1.1,0-1.9,0-3,0.2c-2.4,0.4-4.8,0.7-7.3,1c-1.8,0.2-3.5,0.4-5.3,0.5
													c-1.1,0.1-2.1,0.1-3.2,0.4c-2,0.4-4,0.7-6.1,0.8c-0.6,0-1,0-1.6,0.1c-1.6,0.3-3.1,0.7-4.7,1c-0.5,0.1-1.1,0.3-1.6,0.5
													s-0.7,0.6-1.2,0.8s-1.1,0.2-1.5,0.5c0,0.6,2,0.5,2.3,0.4c0.7-0.1,1.3-0.2,2-0.1c2,0.3,4.1,0.5,6.1,0.2
													c1.4-0.2,2.6-0.8,3.9-1.2c0.6-0.2,1.3-0.2,1.9-0.3c0.4-0.1,0.7-0.2,1.1-0.3c0.6-0.1,1.3-0.1,1.9-0.2
													c1-0.1,1.9-0.3,2.9-0.5c0.8-0.2,1.6-0.2,2.4-0.4c1.5-0.4,3.2-0.5,4.7-0.5c1.4,0,2.8-0.4,4.2-0.3c0.8,0.1,1-0.5,1.4-1.1
													C108.4,126.4,108.6,126.2,108.8,125z"/>
												<path d="M82,131.8c-1.5,0-3-0.2-4.2-0.3c-0.6-0.1-1.1,0-1.6,0h-0.4c-1.2,0.1-2,0-2.4-0.3c-0.1-0.1-0.2-0.2-0.2-0.4v-0.1
													l0.1-0.1c0.3-0.3,0.7-0.3,1-0.4c0.2,0,0.4-0.1,0.5-0.2c0.2-0.1,0.4-0.2,0.5-0.4c0.2-0.2,0.4-0.3,0.6-0.4
													c0.5-0.2,1.1-0.4,1.6-0.5c0.7-0.1,1.4-0.3,2.1-0.5c0.6-0.1,1.3-0.3,1.9-0.4c0.5-0.1,1.4-0.2,2-0.2
													c2.1-0.1,4.2-0.3,6.4-0.8c1.1-0.2,2.1-0.3,3.3-0.4c1.8-0.1,3.6-0.3,5.2-0.5c2.4-0.3,4.9-0.7,7.3-1
													c1.1-0.2,1.9-0.2,2.9-0.2h0.1h0.2v0.2c-0.1,1-0.3,1.3-0.5,1.6c0,0,0,0.1-0.1,0.1v0.1c-0.3,0.6-0.6,1.2-1.5,1.1
													c-0.8-0.1-1.6,0-2.3,0.2c-0.6,0.1-1.2,0.2-1.8,0.2c-1.8,0-3.4,0.2-4.7,0.5c-0.4,0.1-0.9,0.2-1.3,0.2
													c-0.4,0.1-0.7,0.1-1.1,0.2c-1,0.2-1.9,0.4-2.9,0.5c-0.6,0-1.3,0.1-1.9,0.2c-0.3,0.1-0.7,0.2-1.1,0.3
													c-0.3,0.1-0.6,0.1-0.9,0.1c-0.4,0-0.7,0.1-1,0.2c-0.5,0.1-1,0.3-1.5,0.5c-0.8,0.3-1.6,0.6-2.5,0.7
													C83.3,131.7,82.6,131.8,82,131.8z M77.2,131.1c0.2,0,0.4,0,0.7,0c1.8,0.2,4,0.5,6,0.2c0.8-0.1,1.6-0.4,2.4-0.7
													c0.5-0.2,1-0.4,1.5-0.5c0.4-0.1,0.7-0.1,1.1-0.2c0.3,0,0.6-0.1,0.9-0.1c0.3-0.1,0.7-0.2,1.1-0.3
													c0.7-0.1,1.3-0.1,1.9-0.2c1-0.1,1.9-0.3,2.8-0.5c0.4-0.1,0.8-0.1,1.1-0.2c0.4-0.1,0.8-0.1,1.3-0.2
													c1.4-0.3,3-0.5,4.8-0.5c0.6,0,1.2-0.1,1.8-0.2c0.8-0.1,1.6-0.2,2.4-0.2c0.6,0,0.8-0.3,1.2-0.9v-0.1c0,0,0-0.1,0.1-0.1
													c0.1-0.2,0.3-0.5,0.4-1.3c-0.9,0-1.7,0-2.7,0.2c-2.4,0.4-4.8,0.7-7.3,1c-1.7,0.2-3.4,0.4-5.3,0.5
													c-1.2,0.1-2.1,0.1-3.2,0.4c-2.1,0.4-4.1,0.7-6.1,0.8c-0.6,0-1,0-1.6,0.1c-0.9,0.1-1.7,0.3-2.6,0.5
													c-0.7,0.2-1.4,0.3-2.1,0.5c-0.5,0.1-1.1,0.3-1.5,0.5c-0.2,0.1-0.4,0.2-0.5,0.4c-0.2,0.2-0.4,0.3-0.6,0.5
													c-0.2,0.1-0.4,0.1-0.6,0.2c-0.3,0.1-0.6,0.1-0.8,0.3l0,0c0.1,0.1,0.5,0.3,2.1,0.2h0.4C76.5,131.1,76.8,131.1,77.2,131.1
													z"/>
											</g>
											<g>
												<path class="st9" d="M186.1,65.3c-1.1,0-3.1-0.4-4.2,0.1c-1,0.4-1.7,1.6-2.2,2.5c-1.4,2.3-3.7,3.2-6.3,3.5
													c-4.4,0.5-8.8,0.2-13.1,0.3c-3.6,0.1-6.9-1.5-10.5-1.5c-1.9-0.1-3,0.4-4.2,1.9c-1.2,1.6-4,3.1-6,2.6
													c-2.2-0.5-3.4-3.2-4.8-4.8c-1.6-1.8-4.1-2.7-6.4-3c-1.7-0.2-3.5,0-5.2-0.1c-1.9,0-3.7-0.1-5.6,0.4c-2,0.5-4.1,1.1-6,1.9
													c-2.2,0.9-4.4,2-6.6,2.9c-2,0.7-4.2,1.7-6.3,2.2c-1.4,0.3-2.8,0.1-4.2,0.1c-0.8,0-3,0.5-3.6-0.1
													c-0.5-0.5-0.3-1.6-0.3-2.1c0-5,4.3-8.1,7.5-11.4c2.1-2.2,5.1-4,8-4.7c1-0.2,2.1-0.3,3.2-0.6c0.5-0.1,1.7-0.7,2.1-0.5
													c-0.7,0.8-1.2,1.3-1.4,2.3c0,0.4-0.2,1.4,0,1.7c0.2,0.5,0.4,0.4,0.9,0.4c2.8,0.1,6.1,0.4,8.8-0.6c2.9-1,5-3.4,7.8-4.8
													c2.2-1.1,4.5-1.7,6.8-2.5c3-1.1,6.1-1.9,9.1-3c2.6-0.9,5.4-1.4,8.2-1.5c3.1-0.1,6.4-0.2,9.5,0.4
													c5.6,1,10.8,3.1,15.4,6.3c2,1.4,4.7,2.8,5.4,5.3C182.6,60.8,182.7,62.3,186.1,65.3z"/>
											</g>
											<g>
												<g>
													<path class="st13" d="M131.5,200.9c1.2-2,2.3-4,3.5-6c0.1-0.2,2.5-3,2.6-3.1c0.4-1.1-1.4,0.6-0.7-0.3
														c0.5-0.6,1-1,1.4-1.6c0.4-0.7,0.6-1.6,0.6-2.3s0.2-1.5-1-1.8c-0.7,2-2,3.8-3.1,5.6c-1.3,2.3-2.3,4.8-3.6,7.1
														c-0.8,1.4-1.6,2.9-2.3,4.4c-0.3,0.6-1,1.5-1.2,2.3C129.1,203.9,130.4,202.5,131.5,200.9z"/>
												</g>
												<g>
													<path class="st13" d="M136.9,191.6c0-0.6,0-1.2-0.2-1.8c-0.2-0.7-0.4-1.4-0.4-2.2c0-0.9-0.1-1.8,0.9-2.2
														c0.4-0.1,0.8-0.2,1.3-0.2c0.4,0,0.8-0.1,1.1,0.1c0.5,0.3,1.1,0.7,1.3,1.2s0.2,1.1,0.1,1.6c-0.1,0.6-0.6,1.1-1.2,1.4
														c-0.5,0.3-0.9,0.7-1.3,1.1c-0.2,0.2-0.4,0.5-0.7,0.6c-0.3,0.2-0.5,0.6-0.7,0.9C137.1,192.3,137.1,192.2,136.9,191.6z"
														/>
												</g>
												<g>
													<path class="st13" d="M136.9,185.9c-0.4,1.4-0.9,2.9-1.6,4.3c-0.4,0.9-0.6,2-1,2.9s-0.5,1.8-0.8,2.7s-0.3,1.9-0.9,2.7
														c0.1-0.4,0.5-0.8,0.6-1.2c0.3-0.8,0.5-1.4,0.9-2.1c0.7-1.1,1.5-2.3,2.3-3.3c0.7-0.9,1.1-1.8,1.5-2.9
														C138.3,188.2,138.9,186.9,136.9,185.9z"/>
												</g>
											</g>
											<g>
												<path class="st13" d="M177.2,163.2c-0.1-0.1-0.1-0.1-0.2-0.2c-0.7-0.7-1.3-1.6-2-2.3c-1.6-1.8-2.7-3.7-3.9-5.8
													c0.7,0.9,0.9,2.1,1.5,3.1c0.7,1.3,1.4,2.2,1.6,3.7c0.4,2.8-0.5,5.4-3.4,6.4c-0.8,0.3-1.5,0.2-2.3,0.3s-1.2,0.4-1.8,0.9
													c-1.2,0.8-2.4,1-3.8,1c-1.3,0-2.6,0.1-3.7-0.6c-1.1-0.7-2.5-1.9-3.4-0.7c-0.7,1,0.5,3.4,1.4,3.9
													c1.4,0.8,3.1,0.7,4.6,0.7c1.9,0,3.8,0.2,5.5-0.5c2-0.7,4.1-1.9,6.2-2.1c1.7-0.2,4,0.1,5.2-1.4c0.9-1.2,1-3.2,0.3-4.5
													C178.5,164.4,177.8,163.8,177.2,163.2z"/>
											</g>
											<g>
												<path class="st16" d="M125.7,55.2c-0.5-0.1-0.9,0.3-1.3,0.5c-0.5,0.2-1,0.4-1.5,0.6c-0.8,0.4-1.7,0.7-2.7,0.8
													c-1.5,0.2-3.9,0.6-4.8-0.9c-0.3-0.5-0.3-1.1-0.3-1.7c0-0.5,0.3-0.9,0.5-1.3c0.2-0.6,0.5-1.1,0.7-1.7
													c0.4-1.1,0.9-2.3,1.6-3.2c0.8-1.1,1.9-2.3,2.9-3.2c-1.4,0-3-0.2-4.4,0.1c-0.4,0.1-0.8,0.1-1.3,0.2
													c-0.4,0.1-0.7,0.4-1.1,0.5c-0.7,0.4-1.3,0.6-2,1s-1.4,0.7-2.1,1.1c-1,0.4-2,0.9-2.9,1.4s-1.9,1.1-2.6,1.8
													c-0.8,0.7-1.5,1.6-2.3,2.4c-0.9,1-2,1.8-2.9,2.8c-0.8,0.8-1.4,1.6-2.1,2.5c-0.6,0.7-1.3,1.3-1.8,2
													c-1.1,1.6-1.7,3.3-1.7,5.3c0,0.7-0.1,1.5,0,2.2c0.1,0.8,0.5,1.2,1.1,1.6c0.4,0.3,0.8,0.7,1.3,0.9
													c0.6,0.2,1.3,0.2,1.9,0.2c1.7,0,3-0.4,4.4-1.4c0.9-0.6,1.8-1.3,2.7-1.9c0.6-0.4,1.3-0.9,1.9-1.4
													c0.9-0.6,1.9-1.1,2.9-1.7c3.7-2.1,7.6-4.1,11.9-5.1c1.9-0.4,3.9-0.5,5.8-0.2c0.7,0.1,1.7,0.4,2.4,0.2
													c0.8-0.2,0.8-0.9,0.8-1.6"/>
											</g>
											<g>
												<path class="st15" d="M199.2,127.1c3.3,0.2,6.4,1.8,9.8,1.9c2.1-0.3,4.2,1.8,2.5,3.7c-3.9,2-5.2,1.9-5.6,6.9
													c-1.4,20.5-28.7,27.8-38.3,9.7c-1.5-2.8-2.3-6-2.8-9.1c-0.2-1.4-0.4-2.9-0.4-4.3c0-0.5,0.1-1.3-0.2-1.8
													c-0.4-0.5-1.3-0.6-1.8-0.8c-1.8-0.6-4.6-1.3-6.4-0.4c-3,1.5-1.6,3.6-2.7,6.2c-1.7,4.5-3.8,9.3-7.3,12.7
													c-7.1,6.2-18.5,6.9-26.5,2c-6-4.1-7.4-11.7-7.5-18.5c0.2-3.6-1.8-5.2-4.9-6.3c-2.5-3.2,3.2-4.7,5.6-4.6
													c9.3-1,19.6-4.1,28.6-0.2c4.3,1.9,7.4,5.8,12.5,4c5,0.1,10.2-1.1,14.7,1.2C181.1,123.7,185.8,124.5,199.2,127.1z
													 M134.5,124.9c-11.4-3.1-23,2.7-20.3,15.9c0,14.5,19.4,18.7,29.1,10.9c3.3-2.6,6.4-7.9,7.4-12c0.6-2.7,0-5.3-1.5-7.5
													C146,127.7,139.9,125.3,134.5,124.9 M181.9,127.2c-17.2,0.4-19.6,15.1-8.6,26c14.5,11.9,35.2-1.6,29.8-18.8
													C199.8,126.9,189.2,126.7,181.9,127.2z M111.1,127.5c0.3-0.1,0.8,0.1,0.9-0.5c0.1-0.7-0.5-0.5-0.9-0.5
													c-0.9,0.1-2.6-0.7-3.1,0.3C108.3,127.9,110.1,127.2,111.1,127.5z"/>
												<path d="M184.5,159.2c-6.2,0-13-2.7-17.1-10.4c-1.3-2.5-2.2-5.4-2.8-9.1c-0.2-1.5-0.4-3-0.4-4.3c0-0.1,0-0.3,0-0.5
													c0-0.4,0-0.9-0.2-1.2s-0.8-0.5-1.3-0.6c-0.2,0-0.3-0.1-0.4-0.1c-2.9-0.9-5-1.1-6.3-0.4c-1.8,0.9-1.9,2.1-2.1,3.5
													c-0.1,0.8-0.2,1.7-0.6,2.6c-1.7,4.4-3.8,9.3-7.3,12.8c-7.1,6.2-18.5,7.1-26.7,2.1c-4.9-3.4-7.4-9.5-7.6-18.6
													c0.2-3-1.2-4.9-4.8-6.1l0,0l0,0c-0.7-0.9-0.8-1.7-0.5-2.5c0.9-1.7,4.5-2.5,6.2-2.4c2.1-0.2,4.2-0.5,6.4-0.9
													c7.5-1.2,15.3-2.3,22.3,0.7c1.2,0.5,2.4,1.3,3.5,1.9c2.7,1.7,5.3,3.3,8.9,2.1l0,0l0,0c1.3,0,2.7,0,4-0.1
													c3.6-0.2,7.4-0.4,10.7,1.3c12.8-6,17.7-5.1,30.7-2.5c1.6,0.1,3.2,0.5,4.8,0.9s3.3,0.9,5,0.9c1.2-0.2,2.5,0.5,3.1,1.5
													c0.4,0.8,0.3,1.7-0.4,2.5h-0.1c-0.5,0.3-1,0.5-1.5,0.7c-2.8,1.3-3.7,1.8-4,6c-0.8,11.3-9.2,18-17.1,19.7
													C187.6,159.1,186.1,159.2,184.5,159.2z M158.1,132.3c1.2,0,2.6,0.3,4.3,0.8c0.1,0,0.2,0.1,0.4,0.1
													c0.5,0.1,1.2,0.3,1.5,0.7s0.3,0.9,0.3,1.4c0,0.2,0,0.3,0,0.4c0.1,1.3,0.2,2.7,0.4,4.3c0.6,3.6,1.5,6.6,2.7,9
													c5,9.5,14.2,11.3,21.1,9.8c7.8-1.7,16.1-8.3,16.9-19.4c0.3-4.4,1.4-4.9,4.2-6.3c0.4-0.2,0.9-0.4,1.4-0.7
													c0.6-0.7,0.7-1.4,0.3-2.1c-0.5-0.9-1.6-1.4-2.7-1.3c-1.8,0-3.5-0.5-5.1-0.9c-1.5-0.4-3.1-0.8-4.7-0.9l0,0
													c-13-2.6-17.8-3.5-30.6,2.5h-0.1h-0.1c-3.3-1.7-7-1.5-10.6-1.3c-1.3,0.1-2.7,0.1-4,0.1c-3.7,1.3-6.4-0.4-9.2-2.1
													c-1.1-0.7-2.2-1.4-3.4-1.9c-6.9-3-14.6-1.9-22.1-0.7c-2.1,0.3-4.3,0.7-6.5,0.9c-1.8-0.1-5.1,0.7-5.9,2.2
													c-0.3,0.6-0.2,1.3,0.4,2c2.5,0.9,5.2,2.4,5,6.5c0.2,9,2.6,15,7.4,18.3c8,4.9,19.3,4.1,26.3-2c3.5-3.4,5.6-8.3,7.2-12.7
													c0.4-0.9,0.5-1.7,0.5-2.5c0.1-1.4,0.3-2.8,2.3-3.8C156.5,132.4,157.2,132.3,158.1,132.3z M185.5,157.9
													c-4.3,0-8.7-1.5-12.4-4.6c-5.9-5.8-8.2-12.8-6-18.4c1.2-2.9,4.6-7.8,14.7-8c11.9-0.8,18.9,1.6,21.4,7.4
													c2.4,7.7-0.3,15.7-7.1,20.2C192.9,156.8,189.2,157.9,185.5,157.9z M186,127.2c-1.3,0-2.7,0-4.1,0.1l0,0
													c-9.9,0.2-13.2,5-14.3,7.8c-2.1,5.4,0.1,12.3,5.9,18c6.7,5.5,15.5,6,22.5,1.2c6.6-4.5,9.3-12.3,7-19.8
													C200.8,129.6,195.2,127.2,186,127.2z M131.5,155.7c-3.1,0-6.3-0.7-9.1-2c-5.4-2.6-8.4-7.2-8.4-12.9
													c-1.3-6.8,1.1-10.8,3.5-13c3.9-3.7,10.5-4.9,17.1-3.1c4.6,0.3,11.3,2.4,14.8,7.4c1.6,2.3,2.2,5,1.5,7.6
													c-1.1,4.4-4.3,9.6-7.5,12.1C140.2,154.4,135.9,155.7,131.5,155.7z M128.6,124.3c-4.3,0-8.2,1.3-10.9,3.8
													c-3.2,3-4.4,7.4-3.4,12.7c0,5.6,2.9,10.1,8.2,12.6c6.6,3.2,15.3,2.4,20.6-1.8c3.1-2.5,6.3-7.6,7.3-11.9
													c0.6-2.5,0.1-5.1-1.5-7.3c-3.4-4.9-9.9-7-14.5-7.3l0,0C132.5,124.5,130.5,124.3,128.6,124.3z M111.1,127.7L111.1,127.7
													c-0.4-0.1-0.8-0.1-1.3-0.1c-0.8,0-1.8,0.1-2.1-0.8v-0.1v-0.1c0.4-0.7,1.3-0.6,2.2-0.5c0.4,0.1,0.8,0.1,1.1,0.1
													c0.1,0,0.2,0,0.3,0c0.2,0,0.5,0,0.7,0.2c0.1,0.1,0.2,0.3,0.1,0.5c0,0.6-0.6,0.6-0.8,0.6
													C111.3,127.7,111.2,127.7,111.1,127.7L111.1,127.7z M110.4,127.3c0.3,0,0.5,0,0.7,0.1c0.1,0,0.1,0,0.2,0
													c0.4,0,0.5-0.1,0.5-0.3c0-0.1,0-0.2,0-0.2c-0.1-0.1-0.3-0.1-0.4,0c-0.1,0-0.2,0-0.3,0c-0.3,0.1-0.7,0-1.2-0.1
													c-0.7-0.1-1.4-0.2-1.7,0.2c0.2,0.5,0.8,0.5,1.7,0.4C110,127.3,110.2,127.3,110.4,127.3z"/>
											</g>
											<g>
												<path class="st14" d="M170.8,185.8c-0.1,0-0.1,0-0.2,0c-0.4,0-0.9,0.1-1.3,0.1c-0.5,0-0.9,0-1.2-0.2
													c-0.1,0-0.4,0-0.5-0.1c-1.2,0.1-2.4,0.2-3.6,0.2c-2.7,0-5.4,0.1-8.1,0.2c-5.6,0.1-6.9,0.8-12.5,0.7l-3.3,0.1
													c-0.4,0.1-1.9,0.1-3,0.2c0.1,0.2,0.2,0.4,0.3,0.5c1.1,0,2.5-0.2,3-0.1c0.4,0.1,0.8,0,1.3,0s0.9,0.2,1.4,0.3
													c0.7,0.1,1.2,0.3,1.8,0.5c0.8,0.3,1.6,0.2,2.4,0.4c1.3,0.3,2.6,0.3,4,0.5c0.6,0.1,1.2,0.2,1.9,0.3c0.3,0,1.2-0.1,1.6,0
													c0.4,0,0.8,0,1.1,0c2.9-0.5,4.8-0.8,7.9-1.3c1.7-0.3,3.4-0.6,5.1-0.9c1.6-0.3,5.3,0.2,5.3-0.8
													C173.5,185.6,171.7,185.8,170.8,185.8z"/>
											</g>
											<g>
												<path class="st14" d="M174.6,184.7c-1.3-0.4-3.8-0.2-5-0.9c-1.7-1-4-1.2-5.9-1.1c-2.1,0.1-4.3,0.5-6.3,1.2
													c-1.2,0.4-1.8,0.5-3.1,0.5c-1.6,0-3.7-1.3-5.3-1.3c-2.8,0-7.8,1.7-10.5,2.2c-1.2,0.2-1.3,0.8-1.7,1.2
													c0.1,0.2,0.2,0.3,0.3,0.5c1.7,0,3.3,0.1,5,0c3.7-0.1,7.5-0.3,11.2-0.4c6.5-0.2,13.1-0.5,19.6-0.7c0.1,0,0.9,0.3,1,0.3
													C174.2,186.3,174.9,184.8,174.6,184.7z"/>
											</g>
										</g>
									</g>
								</g>
							</g>
						</g>
						<g>
							<path class="st15" d="M199.2,127.2c3.3,0.2,6.4,1.8,9.8,1.9c2.1-0.3,4.2,1.8,2.5,3.7c-3.9,2-5.2,1.9-5.6,6.9
								c-1.4,20.5-28.7,27.8-38.3,9.7c-1.5-2.8-2.3-6-2.8-9.1c-0.2-1.4-0.4-2.9-0.4-4.3c0-0.5,0.1-1.3-0.2-1.8
								c-0.4-0.5-1.3-0.6-1.8-0.8c-1.8-0.6-4.6-1.3-6.4-0.4c-3,1.5-1.6,3.6-2.7,6.2c-1.7,4.5-3.8,9.3-7.3,12.7
								c-7.1,6.2-18.5,6.9-26.5,2c-6-4.1-7.4-11.7-7.5-18.5c0.2-3.6-1.8-5.2-4.9-6.3c-2.5-3.2,3.2-4.7,5.6-4.6
								c9.3-1,19.6-4.1,28.6-0.2c4.3,1.9,7.4,5.8,12.5,4c5,0.1,10.2-1.1,14.7,1.2C181,123.7,185.8,124.5,199.2,127.2z M134.5,124.9
								c-11.4-3.1-23,2.7-20.3,15.9c0,14.5,19.4,18.7,29.1,10.9c3.3-2.6,6.4-7.9,7.4-12c0.6-2.7,0-5.3-1.5-7.5
								C146,127.7,139.8,125.3,134.5,124.9 M181.8,127.2c-17.2,0.4-19.6,15.1-8.6,26c14.5,11.9,35.2-1.6,29.8-18.8
								C199.7,126.9,189.1,126.7,181.8,127.2z M111.1,127.5c0.3-0.1,0.8,0.1,0.9-0.5c0.1-0.7-0.5-0.5-0.9-0.5
								c-0.9,0.1-2.6-0.7-3.1,0.3C108.2,127.9,110,127.2,111.1,127.5z"/>
							<path d="M184.5,159.2c-6.2,0-13-2.7-17.1-10.4c-1.3-2.5-2.2-5.4-2.8-9.1c-0.2-1.5-0.4-3-0.4-4.3c0-0.1,0-0.3,0-0.5
								c0-0.4,0-0.9-0.2-1.2s-0.8-0.5-1.3-0.6c-0.1,0-0.3-0.1-0.4-0.1c-2.9-0.9-5-1.1-6.3-0.4c-1.8,0.9-1.9,2.1-2.1,3.5
								c-0.1,0.8-0.2,1.7-0.6,2.6c-1.7,4.4-3.8,9.3-7.3,12.8c-7.1,6.2-18.5,7.1-26.7,2.1c-4.9-3.4-7.4-9.5-7.6-18.6
								c0.2-3-1.2-4.9-4.8-6.1l0,0l0,0c-0.7-0.9-0.8-1.7-0.5-2.5c0.9-1.7,4.5-2.5,6.2-2.4c2.1-0.2,4.2-0.5,6.4-0.9
								c7.5-1.2,15.3-2.3,22.3,0.7c1.2,0.5,2.4,1.3,3.5,1.9c2.7,1.7,5.3,3.3,8.9,2.1l0,0l0,0c1.3,0,2.7,0,4-0.1
								c3.6-0.2,7.4-0.4,10.7,1.3c12.8-6,17.7-5.1,30.7-2.5c1.6,0.1,3.2,0.5,4.8,0.9s3.3,0.9,5,0.9c1.2-0.2,2.5,0.5,3.1,1.5
								c0.4,0.8,0.3,1.7-0.4,2.5h-0.1c-0.5,0.3-1,0.5-1.5,0.7c-2.8,1.3-3.7,1.8-4,6c-0.8,11.3-9.2,18-17.1,19.7
								C187.5,159.1,186,159.2,184.5,159.2z M158,132.3c1.2,0,2.6,0.3,4.3,0.8c0.1,0,0.2,0.1,0.4,0.1c0.5,0.1,1.2,0.3,1.5,0.7
								s0.3,0.9,0.3,1.4c0,0.2,0,0.3,0,0.4c0.1,1.3,0.2,2.7,0.4,4.3c0.6,3.6,1.5,6.6,2.7,9c5,9.5,14.2,11.3,21.1,9.8
								c7.8-1.7,16.1-8.3,16.9-19.4c0.3-4.4,1.4-4.9,4.2-6.3c0.4-0.2,0.9-0.4,1.4-0.7c0.6-0.7,0.7-1.4,0.3-2.1
								c-0.5-0.9-1.6-1.4-2.7-1.3c-1.8,0-3.5-0.5-5.1-0.9c-1.5-0.4-3.1-0.8-4.7-0.9l0,0c-13-2.6-17.8-3.5-30.6,2.5h-0.1h-0.1
								c-3.3-1.7-7-1.5-10.6-1.3c-1.3,0.1-2.7,0.1-4,0.1c-3.7,1.3-6.4-0.4-9.2-2.1c-1.1-0.7-2.2-1.4-3.4-1.9
								c-6.9-3.1-14.6-1.9-22.1-0.7c-2.1,0.3-4.3,0.7-6.5,0.9c-1.8-0.1-5.1,0.7-5.9,2.2c-0.3,0.6-0.2,1.3,0.4,2
								c2.5,0.9,5.2,2.4,5,6.5c0.2,9,2.6,15,7.4,18.3c8,4.9,19.3,4.1,26.3-2c3.5-3.4,5.6-8.3,7.2-12.7c0.4-0.9,0.5-1.7,0.5-2.5
								c0.1-1.4,0.3-2.8,2.3-3.8C156.4,132.5,157.2,132.3,158,132.3z M185.5,157.9c-4.3,0-8.7-1.5-12.4-4.6
								c-5.9-5.8-8.2-12.8-6-18.4c1.2-2.9,4.6-7.8,14.7-8c11.9-0.8,18.9,1.6,21.4,7.4c2.4,7.7-0.3,15.7-7.1,20.2
								C192.8,156.8,189.2,157.9,185.5,157.9z M185.9,127.2c-1.3,0-2.7,0-4.1,0.1l0,0c-9.9,0.2-13.2,5-14.3,7.8
								c-2.1,5.4,0.1,12.3,5.9,18c6.7,5.5,15.5,6,22.5,1.2c6.6-4.5,9.3-12.3,7-19.8C200.7,129.6,195.2,127.2,185.9,127.2z
								 M131.4,155.7c-3.1,0-6.3-0.7-9.1-2c-5.4-2.6-8.4-7.2-8.4-12.9c-1.3-6.8,1.1-10.8,3.5-13c3.9-3.7,10.5-4.9,17.1-3.1
								c4.6,0.3,11.3,2.4,14.8,7.4c1.6,2.3,2.2,5,1.5,7.6c-1.1,4.4-4.3,9.6-7.5,12.1C140.2,154.4,135.8,155.7,131.4,155.7z
								 M128.5,124.3c-4.3,0-8.2,1.3-10.9,3.8c-3.2,3-4.4,7.4-3.4,12.7c0,5.6,2.9,10.1,8.2,12.6c6.6,3.2,15.3,2.4,20.6-1.8
								c3.1-2.5,6.3-7.6,7.3-11.9c0.6-2.5,0.1-5.1-1.5-7.3c-3.4-4.9-9.9-7-14.5-7.3l0,0C132.4,124.6,130.4,124.3,128.5,124.3z
								 M111.1,127.7L111.1,127.7c-0.4-0.1-0.8-0.1-1.3-0.1c-0.8,0-1.8,0.1-2.1-0.8v-0.1v-0.1c0.4-0.7,1.3-0.6,2.1-0.5
								c0.4,0.1,0.8,0.1,1.1,0.1c0.1,0,0.2,0,0.3,0c0.2,0,0.5,0,0.7,0.2c0.1,0.1,0.2,0.3,0.1,0.5c0,0.6-0.6,0.6-0.8,0.6
								C111.2,127.7,111.2,127.7,111.1,127.7L111.1,127.7z M110.4,127.3c0.3,0,0.5,0,0.7,0.1c0.1,0,0.1,0,0.2,0
								c0.4,0,0.5-0.1,0.5-0.3c0-0.1,0-0.2,0-0.2c-0.1-0.1-0.3-0.1-0.4,0c-0.1,0-0.2,0-0.3,0c-0.3,0.1-0.7,0-1.2-0.1
								c-0.7-0.1-1.4-0.2-1.7,0.2c0.2,0.5,0.8,0.5,1.7,0.4C110,127.3,110.2,127.3,110.4,127.3z"/>
						</g>
					</g>
				</g>
			</g>
		</g>
	</g>
</g>
<path class="st7" d="M92.8,176.6c0,0.5,0.1,3.5-0.1,4c-0.1,0.2-0.2,0.2-0.3,0.5c-0.2,0.6,0,1.6,0,2.2c0,1.3,0.3,2.5,0.3,3.8
	c0,2.2,0.4,4.4,0.9,6.5c0.3,1.3,1,2.8,1.9,3.9c0.6,0.7,1.3,1.2,2,1.8c0.6,0.6,1.3,1.4,1.9,2.1c0.8,1,1.5,2.1,2.4,3.1
	c5.5,4.5,12.3,7.9,17.9,11.6c6.1,4,12,8.4,18.1,12.5c0.2,0,0.5,0,0.7,0c0.8,0,2.1,0.2,2.9,0c0.2-1.2-0.2-2.1-0.8-3.1
	c-0.6-1.1-1.1-2.2-1.9-3.2c-0.5-0.7-1.4-1.5-2.2-2c-0.4-0.3-0.9-0.6-1.4-0.9c-0.3-0.2-0.5-0.4-0.8-0.7c-0.6-0.6-1.3-1-1.9-1.5
	c-0.4-0.3-0.9-0.8-1.2-1.2c-0.6-0.6-1.2-1-1.8-1.7c-0.7-0.8-1.5-1.4-2.3-2.1c-0.6-0.6-1.2-1.1-1.9-1.6c-0.6-0.4-1.2-0.8-1.7-1.3
	c-0.2-0.2-0.4-0.5-0.7-0.7c-0.3-0.2-0.6-0.3-0.9-0.5c-1.4-1.2-2.7-2.6-4-3.9c-1.3-1.3-2.7-2.6-4-3.9c-2.3-2.3-4.5-4.7-6.5-7.3
	c-0.5-0.6-1.1-0.9-1.6-1.4c-0.5-0.5-0.9-1-1.4-1.6c-0.7-0.9-1.7-1.8-2.4-2.6c-0.8-0.7-1.3-1.7-1.9-2.6c-0.5-0.8-1.2-1.5-1.7-2.3
	c-0.4-0.6-0.9-1-1.3-1.6c-0.4-0.5-0.7-1.1-1.1-1.7c-0.5-0.7-1-1.5-1.4-2.2c-0.4-0.6-1.6-3.1-1.8-4L92.8,176.6z"/>
<path class="st16" d="M165.4,65.7c0.1-0.4-2.6-1.3-3.1-1.5c-4.2-1.9-8-2.9-12.9-3c-3.3-0.1-6.7-0.2-10-0.1c-3.3,0.1-6.4,0.9-9.6,0.9
	c-3.1,0-6.5,0.6-9.5,1.4c-3.2,0.9-6.2,2-9.6,2.2c-1.4,0.1-2.6,0.1-3.9-0.3c-0.7-0.2-3.1-0.7-3.3-1.3c-0.3-0.9,2.6-0.9,3.3-1
	c6.8-0.7,11.6-5.8,17.9-7.7c7.1-2.1,15.5-4.1,23.3-3.2c2.9,0.3,5.5,1.2,8,2.3c2.5,1.1,4.7,2.5,7,3.9c1.4,0.8,2.7,1.6,3.9,2.6
	c0.9,0.7,6.4,6.3,7.5,6c-1.9,0.5-3.3-0.5-5.2-0.6c-1.3,0-2.7-1-4-0.8C165.2,65.7,165.2,65.7,165.4,65.7z"/>
<path class="st9" d="M106.5,70.4c-0.5,0-1.1-0.1-1.6,0.2c-0.2,0.1-0.4,0.4-0.7,0.5c-0.2,0.2-0.5,0.3-0.7,0.5c-0.8,0.6-1.4,1.4-2,2.3
	c-0.4,0.7-0.7,1.3-1.2,2c-0.2,0.3-0.4,0.5-0.6,0.9c-0.2,0.4-0.3,0.7-0.5,1c-0.9,1.3-1.4,3.1-1.8,4.7c-0.3,1.1-0.5,2.2-0.8,3.3
	c-0.2,1.2-0.3,2.3-0.5,3.5c-0.2,1.1-0.1,2.3-0.2,3.4c-0.1,0.6-0.1,1.1-0.1,1.7c0,0.6-0.2,1-0.2,1.6c-0.1,1.6,0,3.2,0,4.7
	c0,1.2,0.2,2.6,0,3.7c-1.1,0.2-2,1.3-2.8,2.1c-0.5,0.4-0.9,1.1-1.2,1.6c-0.2,0.3-0.3,0.5-0.5,0.7c-0.1,0.1-0.2,0.3-0.3,0.4
	c-0.6,0.3-0.6-0.4-0.7-0.8c-0.3-1.1-0.4-2.3-0.7-3.4c-0.3-1.2-0.6-2.2-0.6-3.4c-0.1-2,0-4.1,0-6.1c0-3.4,0-6.8,0-10.2
	c0-2.5,0-6.3,2.3-7.6c1.1-0.6,2.1-1.5,3.1-2.3c0.7-0.6,1.5-1.3,2.3-1.7c0.8-0.4,1.5-0.8,2.3-1.3c1-0.7,2.1-0.8,3.2-1.4
	c0.4-0.2,0.7-0.5,1.1-0.7c0.3-0.2,0.7-0.2,1.1-0.3c0.4-0.1,0.8-0.2,1.2-0.2C105.5,69.6,105.8,69.4,106.5,70.4z"/>
<path class="st9" d="M179.4,67.1c0.3,0,0.5-0.2,0.8-0.3c0.3-0.1,0.4-0.2,0.7-0.3c0.2-0.1,0.5-0.1,0.8-0.2c0.3-0.1,0.5-0.1,0.8-0.2
	c0.6-0.1,1.1-0.1,1.7-0.1c0.5,0,1.1-0.1,1.6,0.2c0.3,0.1,0.4,0.3,0.7,0.4c0.2,0.1,0.4,0.1,0.6,0.3c0.3,0.2,0.7,0.4,1,0.6
	c0.5,0.3,1,0.9,1.3,1.4c0.3,0.4,0.4,0.8,0.8,1.1c0.2,0.2,0.5,0.4,0.7,0.6c0.2,0.1,0.6,0.7,0.8,0.6c0.2-0.6-0.1-1.1-0.3-1.6
	c-0.2-0.6-0.3-1.2-0.7-1.7c-0.3-0.3-0.5-0.6-0.7-0.9c-0.4-0.5-1-0.8-1.5-1.2c-1.1-0.9-2.3-1.7-3.5-2.3c-1-0.5-2.5-0.2-3.6-0.2
	c-0.7,0-1.3,0.1-1.9,0.5c-0.5,0.2-0.9,0.5-1.3,0.8c-0.7,0.5-0.8,1.1-0.8,1.9c0,0.3,0,0.5,0.1,0.7C177.3,67.1,177.6,67.7,179.4,67.1z
	"/>
<path class="st0" d="M201.6,176.3c-2.5,3.6-3.7,8-5.7,11.9c-1.7,3.3-3.7,6.3-5.2,9.6c-1.6,3.4-3,7-5.2,10c-1,1.4-1.2,2.6-2.5,3.7
	c-0.7,0.6-1,2.1-5.2,5.8c-0.8,0.7,1.3,0.8,2.2,0.8c0.9,0,19.4,5.9,20.3,5.9c1.4,0-14.5-6.9-13.1-7.3c5.5-1.6,10.4-4.6,15.2-7.6
	c4.8-3,8.5-6.9,11.5-11.6c1.4-2.2,1.2-5,1.3-7.6c0.1-3.9-2.3-6.7-4.1-10c-0.3-0.6-0.6-1.7-1.3-1.8c-0.3-0.1-0.6,0-0.9,0"/>
<path class="st9" d="M144.9,132.9c0,0-1.1-0.5-1.2-0.6c-2.4-1.9-5.3-2-8.2-2.3c-2.2-0.2-4.8-0.7-7-0.2c-1.5,0.4-3.1,0.8-4.5,1.5
	c-0.6,0.3-1.1,0.6-1.7,0.9c-1.1,0.5-2.3,0.9-3.4,1.3c-0.4,0.1-0.8,0.4-1.2,0.3c-0.1,0-0.2-0.1-0.3-0.1c-0.2-0.1-0.4,0-0.7,0
	c-0.3,0-0.8,0-1-0.3c-0.2-0.4,0.5-0.8,0.7-1c0.5-0.3,1.1-0.6,1.6-0.7c0.3-0.1,0.6-0.2,0.8-0.3c0.7-0.2,1.3-0.8,1.9-1
	c0.4-0.2,0.8-0.4,1.2-0.6c0.8-0.5,1.6-0.5,2.5-0.8c2.3-0.8,4.7-1.1,7.1-1.1c2.3,0,4.7,0.1,6.9,0.7c1.9,0.6,2.8,1,4.4,2.2
	c0.2,0.2,1.1,1.1,1.4,1.2C144.9,132.2,145.3,133.3,144.9,132.9z"/>
<path class="st9" d="M168.8,132.5c0.4,0.1,0.9-0.3,1.2-0.4c0.4-0.2,0.9-0.2,1.4-0.4c0.3-0.1,0.7-0.4,1-0.4c0.4-0.1,0.8-0.1,1.2-0.2
	c0.5-0.2,1.1-0.4,1.6-0.4c0.5,0,1-0.1,1.5-0.2c1.3-0.3,2.5-0.7,3.8-0.7c0.9,0,1.8,0,2.8,0c0.9,0,1.9,0.4,2.8,0.7
	c0.5,0.2,0.9,0.4,1.4,0.7c0.2,0.1,0.6,0.1,0.8,0.3c0.1,0.1,0.2,0.2,0.3,0.3c0.1,0,0.2,0.1,0.3,0.1c0.3,0.2,0.5,0.5,0.8,0.7
	c0.2,0.2,0.7,0.8,1,0.9c0.1-0.6-0.9-1.4-1.4-1.6c-0.3-0.2-0.5-0.4-0.9-0.6c-0.3-0.1-0.6-0.3-0.9-0.4c-0.9-0.5-1.8-0.6-2.8-0.9
	c-0.5-0.1-1.1-0.2-1.6-0.4c-0.5-0.1-0.9-0.3-1.4-0.3c-1.4,0-2.8,0-4.1,0c-0.6,0-1.2,0-1.8,0.2c-0.7,0.2-1.4,0.5-2,0.7
	c-0.7,0.3-1.4,0.6-2.2,0.9c-0.5,0.2-1,0.5-1.4,0.8c-0.4,0.2-1,0.6-1,1.1C168.9,132.8,168.8,132.7,168.8,132.5z"/>
<g>
	<path class="st14" d="M170.7,185.9c-0.3,0-0.7,0-1,0.1c-0.5,0.1-1.2,0.1-1.6-0.1c-0.2-0.1-0.3,0-0.5-0.1c-0.1,0-0.2,0-0.4,0
		c-0.2,0-0.4,0-0.6,0c-1.4,0.1-2.8,0.1-4.3,0.1c-1.4,0-2.9,0.1-4.3,0.1c-2.4,0.1-4.8,0.1-7.2,0.4c-1.9,0.2-3.8,0.4-5.8,0.4
		c-0.6,0-1.2,0-1.7,0c-0.7,0-1.4,0-2,0.1c-0.4,0-0.7,0-1.1,0c-0.3,0-0.5,0.1-0.8,0.1c-0.4,0-0.8,0-1.1,0.1c-0.3,0-0.7,0-1,0
		c-0.1,0-0.2,0-0.2,0c-0.1,0.1,0.1,0.3,0.1,0.4c0.3,0.2,0.7,0.2,1.1,0.2c0.3,0,0.7-0.1,1-0.1c0.7,0,1.4,0,2.1,0
		c2.1,0.2,4.1,0.8,6.2,1.1c0.9,0.2,1.8,0.3,2.6,0.4c0.9,0.1,1.8,0.3,2.7,0.3c0.9,0.1,1.8,0,2.6,0c1.2-0.1,2.4-0.3,3.6-0.5
		c0.9-0.1,1.8-0.3,2.6-0.4c1.8-0.3,3.5-0.6,5.3-0.9c1-0.2,2-0.4,3-0.4c1.1,0,2.2,0.1,3.3-0.1c0.2,0,0.8-0.3,1-0.5
		c0.1-0.1,0.4-0.5,0.4-0.6c0-0.2,0.2-1.4,0-1.4c-4.8-0.3-1.8,1.4-2.2,1.4c-0.5,0-0.9,0-1.4,0C171.1,185.9,170.9,185.9,170.7,185.9z"
		/>
</g>
<g>
	<path class="st14" d="M174.5,184.8c-1.3-0.4-3.8-0.2-5-0.9c-1.7-1-4-1.2-5.9-1.1c-2.1,0.1-4.3,0.5-6.3,1.2
		c-1.2,0.4-1.8,0.5-3.1,0.5c-1.6,0-3.7-1.3-5.3-1.3c-2.8,0-7.8,1.7-10.5,2.2c-1.2,0.2-1.3,0.8-1.7,1.2c0.1,0.2,0.2,0.3,0.3,0.5
		c1.7,0,3.3,0.1,5,0c3.7-0.1,7.5-0.3,11.2-0.4c6.5-0.2,13.1-0.5,19.6-0.7c0.1,0,0.9,0.3,1,0.3C174.1,186.4,174.8,184.9,174.5,184.8z
		"/>
</g>
<path class="st8" d="M182.1,66.5c0.5,0,0.9,0,1.3,0.1c0.3,0.1,0.5,0.3,0.8,0.4c0.5,0.2,0.9,0.3,1.4,0.3c0.4,0.1,0.8,0.3,1.2,0.4
	c0.4,0.1,0.7,0.3,1.1,0.4c0.5,0.2,1,0.4,1.5,0.5c0.4,0.1,0.7,0.4,1,0.6c0.3,0.2,0.6,0.4,1,0.6c0.9,0.5,1.5,1.1,1.8,2.1
	c0.2,0.5,0.2,0.9,0.2,1.4c0,0.7,0.1,1.4,0,2.1c-0.1,0.8-0.6,0.9-1.3,0.9c-0.8,0-1.6,0.1-2.4-0.2c-0.8-0.3-1.7-0.9-2.4-1.5
	c-1.5-1.1-2.5-2.9-3.4-4.4c-0.2-0.4-0.3-0.8-0.6-1.1c-0.1-0.1-0.2-0.1-0.3-0.2C182.8,68.8,182.6,68.6,182.1,66.5z"/>
<path class="st7" d="M125.2,210.7c-0.1,0.1-0.1,0.2,0,0.4c0.6,0.1,0.6,0.4,1,0.7c0.2,0.2,0.5,0.3,0.7,0.5c0.7,0.6,1.4,1.1,2,1.7
	c0.6,0.6,1.4,1.1,2.2,1.6c1.1,0.8,2.1,1.6,3.4,2.2c2.6,1.2,5.2,2.4,7.9,3.5c2.2,0.9,4.6,1.6,6.9,2.4c0.5,0.2,1,0.4,1.5,0.5
	c0.4,0.1,0.7,0.3,1.1,0.4c0.5,0.2,1.1,0.2,1.7,0.4c0.7,0.2,1.3,0.5,2,0.7c0.8,0.3,1.8,0.3,2.6,0.6c2.5,0.8,5.3,1.2,7.9,1.7
	c0.8,0.2,1.7,0.3,2.5,0.5c1.2,0.3,1.9,0.9,2,1.8c0.1,0.7-0.2,1.5-0.4,2.2c-0.1,0.8-0.3,1.5-1.1,2.1c-1.8,1.3-5.1,0.9-7.6,0.5
	c-5.4-0.8-10.3-3.4-15.1-5.4c-1.6-0.7-3.2-1.4-4.6-2.3c-1.6-1-3.3-2-4.8-3.1c-1.7-1.2-3.4-2.2-4.9-3.5c-1.4-1.2-3-2.3-4.3-3.5
	c-0.6-0.5-1.1-1-1.6-1.5c-0.6-0.6-1.4-1-1.9-1.7c-0.3-0.4-0.5-0.9-0.7-1.4C123.1,212.3,122.7,211.9,125.2,210.7z"/>
<path class="st7" d="M151,225.1c0.4,0,0.8,0,1.2,0c0.4,0,1-0.1,1.4,0c0.2,0,0.4,0.1,0.6,0.2c0.2,0,0.4,0,0.5,0c0.2,0,0.5-0.1,0.8,0
	c0.2,0,0.4,0.1,0.6,0.2c0.9,0.1,2,0,2.9,0c1.1,0,2.1-0.2,3.1-0.3c0.2,0,0.4-0.1,0.6-0.2c0.3,0,0.5,0,0.8-0.1
	c0.3-0.1,0.6-0.2,0.8-0.2c0.4-0.1,0.6-0.3,1-0.4c0.8-0.2,1.7-0.5,2.5-0.9c0.3-0.2,0.7-0.3,1-0.5c0.6-0.3,1.1-0.4,1.7-0.7
	c0.9-0.4,1.8-0.7,2.8-0.6c0.2,0.6,0,1.7-0.1,2.2c-0.2,0.9-0.4,1.9-0.7,2.8c-0.3,0.7-0.6,1.5-1.1,2.1c-0.9,1.1-2.7,1.8-4,2.2
	c-1.9,0.4-3.8,0.6-5.7,0.6c-1.9,0-3.8,0-5.7-0.4c-0.9-0.2-1.8-0.4-2.7-0.8c-0.7-0.3-1.4-0.8-2.1-1.2c-0.4-0.2-0.7-0.4-1.1-0.6
	c-0.5-0.2-0.6-0.3-0.8-0.8"/>
<path class="st8" d="M88.6,145.4c0.2,0.6-0.5,1-0.6,1.5c-0.1,0.3,0,0.6-0.1,0.9c-0.1,0.2-0.2,0.3-0.2,0.7c-0.2,1.3,0,2.6,0,3.9
	c0,0.9,0.2,1.8,0.3,2.7c0.1,0.4,0.2,0.8,0.3,1.2c0,0.3-0.1,0.6,0,0.9c0.1,0.7,0.3,1.2,0.3,2c0,0.8,0.2,1.2,0.3,1.9
	c0.1,0.8,0.1,1.6,0.3,2.4c0.2,0.6,0.7,1.2,0.9,1.9c0.2,0.6,0.3,1,0.6,1.5c0.6,1,1,1.9,1.9,2.6c1.3,1.1,2.5,1.6,4.2,1.5
	c0.5,0,0.8,0.1,1.2-0.3c0.3-0.4,0.5-1.6,0.5-2c0.6-4-1.4-8.2-2.6-11.9c-0.8-2.4-1.6-4.9-2.4-7.4c-0.4-1.3-0.9-2.4-1.5-3.6
	C91.3,144.6,91,144.5,88.6,145.4z"/>
<path class="st3" d="M81.9,186c-0.7-0.2-1.7,0.8-2.2,1.2c-0.7,0.5-1.4,1.2-2,1.8c-1.4,1.4-2.5,2.9-4,4.1c-1.1,0.9-2.3,1.6-3.3,2.7
	c-0.5,0.5-0.9,0.8-1.4,1.2c-0.3,0.2-0.4,0.4-0.6,0.7c-0.3,0.3-0.5,0.4-0.9,0.7c-0.1,0.5,1.1,1.4,1.4,1.8c0.4,0.5,0.6,1,0.9,1.5
	c0.7,1.2,1.5,2.4,2.2,3.6c0.8,1.4,1.6,2.9,2.4,4.3c0.5,0.8,0.7,1.7,1.2,2.4c0.6,0.8,1.2,1.6,1.7,2.4c1.1,1.6,8.9,9.2,10.4,10.4
	c1.4,1.1-3.1-4.2-1.4-3.6c2,0.7,4.3,1.2,5.8-0.6c1-1.2,0.5-3.1,0.6-4.6c0-1.6,0.2-3.2-0.3-4.8c-0.3-1.2-0.9-2.3-1.3-3.5
	c-0.4-1.3-0.5-2.7-0.9-4c-0.4-1.6-1.1-2.8-1.8-4.2c-0.8-1.5-1.5-3-2.5-4.4c-0.5-0.7-1.7-1.3-2-2.1c-0.1-0.3,0-0.6,0-0.9
	c-0.1-0.4-0.4-0.7-0.3-1.2"/>
<path class="st3" d="M176.5,220.2c0-0.2,0.1-0.4,0.2-0.6c0.1-0.2,0.1-0.3,0.1-0.6c0-0.3,0.3-0.5,0.5-0.8c0.2-0.3,0-0.7,0.4-0.7
	c0.4,0,0.7,0.3,1,0.5c0.3,0.2,0.7,0.2,1.1,0.3c0.5,0.1,0.9,0.2,1.3,0.3c0.3,0,0.7,0.2,1,0.3c0.4,0.1,0.9,0.2,1.3,0.2
	c0.5,0,0.6,0.1,0.6,0.6c0,0.4,0.1,0.8,0.1,1.2c0,0.6,0.2,1.1,0.2,1.7c0.1,0.7-0.1,1.4,0.1,2.2c0.1,0.5,0.3,1,0.4,1.5
	c0.1,0.5,0.1,1,0.2,1.6c0.3,1.6,0.5,3.2,0.5,4.9c0,0.9,0,2.2-1,2.6c-1.5,0.6-2.7-2.3-3.3-3.3c-0.6-1-1.2-2-1.6-3
	c-0.3-0.8-0.5-1.7-0.7-2.6c-0.3-1-0.2-2.1-0.4-3.1c-0.1-0.6,0.1-1.4-0.2-2c-0.1-0.3-0.3-0.4-0.5-0.5
	C177.4,220.5,177.1,220.4,176.5,220.2z"/>
<path class="st4" d="M177.1,217.8c0,0.6,0.1,0.9,0.3,1.4c0.2,0.5,0.2,0.9,0.4,1.4c0.4,1,0.7,1.9,1,2.9c0.4,1.4,0.9,3,1.5,4.2
	c0.5,0.9,0.6,2.1,1,3c0.3,0.6,0.6,1.1,0.8,1.8c0.2,0.7,0.5,1.4,0.7,2.2c0.6,2.1,1.5,4,2,6.1c0.5,2,1.1,3.9,1.6,5.8
	c0.3,1,0.6,2,0.9,3c0.2,0.6,0.3,1.3,0.5,1.9c0.2,0.6,0.5,1.2,0.6,1.8c0.2,1,0.4,1.9,0.7,2.9c0.3,1.1,0.3,2.3,0.6,3.4
	c0.3,1.5,0.6,3.3,1.1,4.7c0.5,1.2,1.1,2.2,1.6,3.4c0.5,1.2,1,2.4,1.5,3.6c0.4,0.9,1,1.9,1.7,2.7c0.8,1,2.8,0.1,3.6-0.5
	c2.4-1.5,3.4-4.6,4.9-6.9c0.6-0.9,1.3-1.6,1.8-2.5c1.2-1.7,1.2-3.9,1.2-5.9c0.1-3.4-0.1-6.8-1.1-10.2c-0.8-2.9-1.9-5.8-2.9-8.6
	c-0.6-1.8-1.4-3.4-2.1-5.2c-0.2-0.7-0.4-1.3-0.8-1.9c-0.5-0.9-0.6-1.8-1-2.7c-0.3-1-1-2-1.5-2.9c-0.3-0.6-0.8-1-1.1-1.6
	c-0.2-0.5-0.4-1-0.6-1.5c-0.2-0.3-0.4-0.7-0.6-1c-0.4-0.4-0.7-0.2-1.2-0.4c-1-0.3-2-0.4-3-0.7c-0.9-0.3-1.9-0.6-2.7-1
	c-0.7-0.3-1.5-0.4-2.2-0.6c-0.6-0.1-1-0.3-1.6-0.5c-1.4-0.4-2.8-1-4.2-1c-0.7,0-1.3-0.4-1.9-0.5C178.2,218,176.8,218.3,177.1,217.8z
	"/>
<path class="st0" d="M80.1,186.4c-0.4,0-0.5,0.4-0.7,0.7c-0.3,0.3-0.6,0.6-0.9,0.9c-0.5,0.6-0.9,1.1-1.3,1.7
	c-0.6,0.9-1.4,1.7-2.2,2.4c-0.8,0.8-1.6,1.7-2.4,2.4c-0.5,0.5-0.8,1-1.3,1.6c-0.2,0.2-0.5,0.4-0.6,0.6c-0.2,0.3-0.3,0.7-0.6,0.9
	c-0.9,0.9-1.8,2.2-2.5,3.3c-1,1.7-2.4,3.1-3.7,4.5c-1.3,1.4-2.6,2.8-4,4.2c-1.6,1.6-3.2,3.3-4.8,4.8c-0.9,0.8-1.8,1.4-2.7,2.2
	c-0.7,0.6-1.4,1.2-2.1,1.7c-1.3,1-1.6-0.5-2-1.7c-0.6-2-0.6-3.8-0.5-5.9c0-1.6,0.6-3.1,1.3-4.6c1.2-2.5,2.5-5,3.9-7.4
	c2.5-4.4,5.5-8.5,7.9-13c0.2-0.4,0.7-1.2,0.6-1.7c0,0-0.1-0.2-0.1-0.3c-0.4-0.4-0.5-1-0.1-1.6c0.3-2.5,0.8-5,1.5-7.5"/>
</svg>
