<svg xmlns="http://www.w3.org/2000/svg"
  xmlns:xlink="http://www.w3.org/1999/xlink" viewBox="0 0 650 650">
  <image id="ALBO" xlink:href="albanese.png" width="0" height="1310" preserveAspectRatio="none" transform="translate(325,325) scale(.4,.4) translate(0,-655)"/>
  <image id="SCO-MO-2" xlink:href="morrison.png" width="1135" height="1310" preserveAspectRatio="none" transform="translate(325,325) scale(.4,.4) translate(-567.5,-655)"/>
  <image id="ALBO-2" xlink:href="albanese.png" width="1135" height="1310" preserveAspectRatio="none" transform="translate(325,325) scale(.4,.4) translate(-567.5,-655)"/>
  <rect width="0" height="256.9" fill="#ff7c7c" transform="translate(558.9,241.9) translate(-6.9,-43.2)"/>
  <rect width="0" height="261.5" fill="#7c9bff" transform="translate(558.9,241.9) translate(-6.9,-47.7)"/>
  <path d="M-0.3 .3l227.3 131c0 0-227.3-131-227.3-131Z" fill="#bbd2ff" transform="translate(325,63)"/>
  <path d="M0 0l227 131.3c0 0-227-131.3-227-131.3Z" fill="#1747a8" transform="translate(325,587) scale(1,-1)"/>
  <g transform="translate(301.8,325.1) translate(-23.2,-261.9)">
    <rect id="_a0" width="0" height="261.5" fill="#fd5058" transform="translate(-173.6,178.9) translate(0,0) translate(-6.9,-47.7)"/>
    <path id="_a1" d="M0 .3l-227 131c0 0 227-131 227-131Z" fill="#fbb" transform="translate(46.5,-0.1)"/>
    <path id="_a2" d="M0 0l-227 131.3c0 0 227-131.3 227-131.3Z" fill="#c31c1c" transform="translate(46.5,523.9) scale(1,-1)"/>
  </g>
  <g transform="translate(301.8,325.1) translate(-23.2,-261.9)">
    <rect id="_a3" width="0" height="261.5" fill="#fd5058" transform="translate(-173.6,178.9) translate(0,0) translate(-6.9,-47.7)"/>
    <path id="_a4" d="M0 .3l-227 131c0 0 227-131 227-131Z" fill="#fbb" transform="translate(46.5,-0.1)"/>
    <path id="_a5" d="M0 0l-227 131.3c0 0 227-131.3 227-131.3Z" fill="#c31c1c" transform="translate(46.5,523.9) scale(1,-1)"/>
  </g>
  <g transform="translate(285.9,325.1) translate(-39.1,-261.9)">
    <rect id="_a6" width="0" height="261.5" fill="#7c9bff" transform="translate(-141.8,178.8) translate(0,0) translate(-6.9,-47.7)"/>
    <path id="_a7" d="M-0.2 .3l-226.8 131c0 0 226.8-131 226.8-131Z" fill="#bbd2ff" transform="translate(78.3,-0.3)"/>
    <path id="_a8" d="M0 0l-227 131.3c0 0 227-131.3 227-131.3Z" fill="#1747a8" transform="translate(78.3,523.7) scale(1,-1)"/>
  </g>
  <g transform="translate(285.9,325.1) translate(-39.1,-261.9)">
    <rect id="_a9" width="0" height="261.5" fill="#7c9bff" transform="translate(-141.8,178.8) translate(0,0) translate(-6.9,-47.7)"/>
    <path id="_a10" d="M-0.2 .3l-226.8 131c0 0 226.8-131 226.8-131Z" fill="#bbd2ff" transform="translate(78.3,-0.3)"/>
    <path id="_a11" d="M0 0l-227 131.3c0 0 227-131.3 227-131.3Z" fill="#1747a8" transform="translate(78.3,523.7) scale(1,-1)"/>
  </g>
  <script xlink:href="keyshapejs.min.js">
  </script>
  <script><![CDATA[if(KeyshapeJS.version.indexOf('1.')!=0)throw Error('Expected KeyshapeJS v1.*.*');window.ks=document.ks=KeyshapeJS;(function(ks){
var tl=ks.animate("#ALBO",[{p:'anchorX',t:[1000,2000,3000],v:[0,-567.5,0],e:[[1,0,0,.6,1],[1,.4,0,1,1],[0]]},{p:'anchorY',t:[1000,2000,3000],v:[-655,-655,-655],e:[[1,0,0,.6,1],[1,.4,0,1,1],[0]]},{p:'width',t:[1000,2000,3000],v:[0,1135,0],e:[[1,0,0,.6,1],[1,.4,0,1,1],[0]]}],
"#SCO-MO-2",[{p:'anchorX',t:[0,1000,3000,4000,5000,7000,8000],v:[-567.5,0,0,-567.5,0,0,-567.5],e:[[1,.4,0,1,1],[0],[1,0,0,.6,1],[1,.4,0,1,1],[1,0,0,.6,1],[1,0,0,.6,1],[1,.4,0,1,1]]},{p:'anchorY',t:[0,1000,3000,4000,5000,7000,8000],v:[-655,-655,-655,-655,-655,-655,-655],e:[[1,.4,0,1,1],[0],[1,0,0,.6,1],[1,.4,0,1,1],[1,0,0,.6,1],[1,0,0,.6,1],[1,.4,0,1,1]]},{p:'width',t:[0,1000,3000,4000,5000,7000,8000],v:[1135,0,0,1135,0,0,1135],e:[[1,.4,0,1,1],[0],[1,0,0,.6,1],[1,.4,0,1,1],[1,0,0,.6,1],[1,0,0,.6,1],[1,.4,0,1,1]]}],
"#ALBO-2",[{p:'anchorX',t:[2000,3000,5000,6000,7000],v:[-567.5,0,0,-567.5,0],e:[[1,.4,0,1,1],[0],[1,0,0,.6,1],[1,.4,0,1,1],[0]]},{p:'anchorY',t:[2000,3000,5000,6000,7000],v:[-655,-655,-655,-655,-655],e:[[1,.4,0,1,1],[0],[1,0,0,.6,1],[1,.4,0,1,1],[0]]},{p:'opacity',t:[1900,2000],v:[0,1],e:[[0],[0]]},{p:'width',t:[2000,3000,5000,6000,7000],v:[1135,0,0,1135,0],e:[[1,.4,0,1,1],[0],[1,0,0,.6,1],[1,.4,0,1,1],[0]]}],
"#_a0",[{p:'mpath',t:[2000,3000,4000],v:['0%','47.4%','100%'],e:[[1,.4,0,1,1],[1,0,0,.6,1],[0]],mp:"M-173.6,178.9L41.5,178.9L280.4,178.7"},{p:'fill',t:[2000,3000,3100],v:['#fd5058','#fd5058','#7c9bff'],e:[[0],[0],[0]]},{p:'width',t:[2000,3000,4000],v:[0,23.9,0],e:[[1,.4,0,1,1],[1,0,0,.6,1],[0]]}],
"#_a1",[{p:'fill',t:[2000,3000,3100],v:['#ffbbbb','#ffbbbb','#bbd2ff'],e:[[0],[0],[0]]},{p:'d',t:[2000,3000,4000],v:["path('M0,.3L-227,131.3L-227,131.3C-227,131.3,0,.3,0,.3Z')","path('M0,.1L-11.9,131.3L11.9,131.3C11.9,131.3,0,.1,0,.1Z')","path('M-0.3,.3L227,131.3L227,131.3C227,131.3,-0.3,.3,-0.3,.3Z')"],e:[[1,.4,0,1,1],[1,0,0,.6,1],[0]]}],
"#_a2",[{p:'fill',t:[2000,3000,3100],v:['#c31c1c','#c31c1c','#1747a8'],e:[[0],[0],[0]]},{p:'d',t:[2000,3000,4000],v:["path('M0,0L-227,131.3L-227,131.3C-227,131.3,0,0,0,0Z')","path('M0,0L-11.9,131.3L11.9,131.3C11.9,131.3,0,0,0,0Z')","path('M0,0L227,131.3L227,131.3C227,131.3,0,0,0,0Z')"],e:[[1,.4,0,1,1],[1,0,0,.6,1],[0]]}],
"#_a3",[{p:'mpath',t:[6000,7000,8000],v:['0%','47.4%','100%'],e:[[1,.4,0,1,1],[1,0,0,.6,1],[0]],mp:"M-173.6,178.9L41.5,178.9L280.4,178.7"},{p:'fill',t:[6000,7000,7100],v:['#fd5058','#fd5058','#7c9bff'],e:[[0],[0],[0]]},{p:'width',t:[6000,7000,8000],v:[0,23.9,0],e:[[1,.4,0,1,1],[1,0,0,.6,1],[0]]}],
"#_a4",[{p:'fill',t:[6000,7000,7100],v:['#ffbbbb','#ffbbbb','#bbd2ff'],e:[[0],[0],[0]]},{p:'d',t:[6000,7000,8000],v:["path('M0,.3L-227,131.3L-227,131.3C-227,131.3,0,.3,0,.3Z')","path('M0,.1L-11.9,131.3L11.9,131.3C11.9,131.3,0,.1,0,.1Z')","path('M-0.3,.3L227,131.3L227,131.3C227,131.3,-0.3,.3,-0.3,.3Z')"],e:[[1,.4,0,1,1],[1,0,0,.6,1],[0]]}],
"#_a5",[{p:'fill',t:[6000,7000,7100],v:['#c31c1c','#c31c1c','#1747a8'],e:[[0],[0],[0]]},{p:'d',t:[6000,7000,8000],v:["path('M0,0L-227,131.3L-227,131.3C-227,131.3,0,0,0,0Z')","path('M0,0L-11.9,131.3L11.9,131.3C11.9,131.3,0,0,0,0Z')","path('M0,0L227,131.3L227,131.3C227,131.3,0,0,0,0Z')"],e:[[1,.4,0,1,1],[1,0,0,.6,1],[0]]}],
"#_a6",[{p:'mpath',t:[0,1000,2000],v:['0%','47.4%','100%'],e:[[1,.4,0,1,1],[1,0,0,.6,1],[0]],mp:"M-141.8,178.8L73.3,178.8L312.2,178.6"},{p:'fill',t:[0,1000,1100],v:['#7c9bff','#7c9bff','#ff7c7c'],e:[[0],[0],[0]]},{p:'width',t:[0,1000,2000],v:[0,23.9,0],e:[[1,.4,0,1,1],[1,0,0,.6,1],[0]]}],
"#_a7",[{p:'fill',t:[0,1000,1100],v:['#bbd2ff','#bbd2ff','#ffbbbb'],e:[[0],[0],[0]]},{p:'d',t:[0,1000,2000],v:["path('M-0.2,.3L-227,131.3L-227,131.3C-227,131.3,-0.2,.3,-0.2,.3Z')","path('M0,.3L-11.9,131.3L11.9,131.3C11.9,131.3,0,.3,0,.3Z')","path('M-0.4,.3L227,131.3L227,131.3C227,131.3,-0.4,.3,-0.4,.3Z')"],e:[[1,.4,0,1,1],[1,0,0,.6,1],[0]]}],
"#_a8",[{p:'fill',t:[0,1000,1100],v:['#1747a8','#1747a8','#c31c1c'],e:[[0],[0],[0]]},{p:'d',t:[0,1000,2000],v:["path('M0,0L-227,131.3L-227,131.3C-227,131.3,0,0,0,0Z')","path('M0,0L-11.9,131.3L11.9,131.3C11.9,131.3,0,0,0,0Z')","path('M0,0L227,131.3L227,131.3C227,131.3,0,0,0,0Z')"],e:[[1,.4,0,1,1],[1,0,0,.6,1],[0]]}],
"#_a9",[{p:'mpath',t:[4000,5000,6000],v:['0%','47.4%','100%'],e:[[1,.4,0,1,1],[1,0,0,.6,1],[0]],mp:"M-141.8,178.8L73.3,178.8L312.2,178.6"},{p:'fill',t:[4000,5000,5100],v:['#7c9bff','#7c9bff','#ff7c7c'],e:[[0],[0],[0]]},{p:'width',t:[4000,5000,6000],v:[0,23.9,0],e:[[1,.4,0,1,1],[1,0,0,.6,1],[0]]}],
"#_a10",[{p:'fill',t:[4000,5000,5100],v:['#bbd2ff','#bbd2ff','#ffbbbb'],e:[[0],[0],[0]]},{p:'d',t:[4000,5000,6000],v:["path('M-0.2,.3L-227,131.3L-227,131.3C-227,131.3,-0.2,.3,-0.2,.3Z')","path('M0,.3L-11.9,131.3L11.9,131.3C11.9,131.3,0,.3,0,.3Z')","path('M-0.4,.3L227,131.3L227,131.3C227,131.3,-0.4,.3,-0.4,.3Z')"],e:[[1,.4,0,1,1],[1,0,0,.6,1],[0]]}],
"#_a11",[{p:'fill',t:[4000,5000,5100],v:['#1747a8','#1747a8','#c31c1c'],e:[[0],[0],[0]]},{p:'d',t:[4000,5000,6000],v:["path('M0,0L-227,131.3L-227,131.3C-227,131.3,0,0,0,0Z')","path('M0,0L-11.9,131.3L11.9,131.3C11.9,131.3,0,0,0,0Z')","path('M0,0L227,131.3L227,131.3C227,131.3,0,0,0,0Z')"],e:[[1,.4,0,1,1],[1,0,0,.6,1],[0]]}],
{autoremove:false}).range(0,8000);
if(document.location.search.substr(1).split('&').indexOf('global=paused')>=0)ks.globalPause();})(KeyshapeJS);
]]>  </script>
</svg>
